<?xml version="1.0" standalone="no"?>
<!DOCTYPE svg PUBLIC "-//W3C//DTD SVG 1.1//EN" "http://www.w3.org/Graphics/SVG/1.1/DTD/svg11.dtd" >
<svg>
<metadata>
Created by FontForge 20110222 at Tue Dec  8 10:35:45 2015
 By www-data
Copyright 1992-96 Payne Loving Trust. All rights reserved. By law this program may not be copied for others or modified.
</metadata>
<defs>
<font id="SansSerifOblique" horiz-adv-x="556" >
  <font-face 
    font-family="SansSerif"
    font-weight="400"
    font-style="oblique"
    font-stretch="normal"
    units-per-em="1000"
    panose-1="0 0 4 0 0 0 0 0 0 0"
    ascent="800"
    descent="-200"
    bbox="-65 -221 1087 944"
    underline-thickness="20"
    underline-position="-123"
    slope="-11"
    unicode-range="U+F020-F124"
  />
<missing-glyph horiz-adv-x="500" 
d="M63 0v800h375v-800h-375zM125 63h250v675h-250v-675z" />
    <glyph glyph-name=".notdef" horiz-adv-x="500" 
d="M63 0v800h375v-800h-375zM125 63h250v675h-250v-675z" />
    <glyph glyph-name=".null" horiz-adv-x="0" 
 />
    <glyph glyph-name="nonmarkingreturn" horiz-adv-x="278" 
 />
    <glyph glyph-name="space" unicode="&#xf020;" horiz-adv-x="278" 
 />
    <glyph glyph-name="exclam" unicode="&#xf021;" horiz-adv-x="278" 
d="M363 729l-78 -367l-63 -195h-42l21 195l78 367h84zM230 104l-22 -104h-84l22 104h84z" />
    <glyph glyph-name="quotedbl" unicode="&#xf022;" horiz-adv-x="355" 
d="M455 708l-24 -114l-55 -132h-40l2 134l23 112h94zM296 708l-24 -114l-55 -132h-40l2 134l23 112h94z" />
    <glyph glyph-name="numbersign" unicode="&#xf023;" 
d="M650 504l-17 -80h-109l-60 -155h103l-17 -80h-118l-83 -209h-75l80 209h-122l-84 -209h-76l82 209h-100l17 80h117l57 155h-104l17 80h118l77 194h79l-78 -194h124l76 194h80l-76 -194h92zM447 424h-124l-59 -155h123z" />
    <glyph glyph-name="dollar" unicode="&#xf024;" 
d="M609 520h-83q4 18 4 35q0 41 -24.5 65.5t-65.5 24.5l-52 -246q94 -23 136 -58t42 -96q0 -24 -6 -54q-19 -89 -92 -149.5t-169 -62.5l-23 -104h-60l23 104q-169 9 -169 164q0 30 6 65h78q-4 -30 -4 -51q0 -49 23 -72t80 -38l57 269q-85 30 -118 57q-42 34 -42 92
q0 22 6 50q18 86 83.5 140t155.5 62l12 53h60l-12 -55q67 0 110 -34q49 -39 49 -112q0 -23 -5 -49zM380 645q-55 -2 -101 -44t-46 -96q0 -75 97 -98zM474 213q0 68 -106 94l-55 -259q69 7 115 52.5t46 112.5z" />
    <glyph glyph-name="percent" unicode="&#xf025;" horiz-adv-x="889" 
d="M891 150q-15 -70 -76 -120.5t-131 -50.5q-60 0 -99.5 39.5t-39.5 97.5q0 77 65 141t143 64q62 0 102 -37t40 -97q0 -18 -4 -37zM827 709l-550 -729h-68l550 729h68zM272 344q-60 0 -99 39t-39 98q0 77 65 141t143 64q62 0 102 -39t40 -97q0 -80 -66 -143t-146 -63z
M823 173q0 34 -23.5 55.5t-61.5 21.5q-41 0 -75.5 -29t-42.5 -65q-3 -12 -3 -24q0 -37 23.5 -60t59.5 -23q47 0 85 38.5t38 85.5zM413 537q0 35 -24 56.5t-62 21.5q-41 0 -75.5 -29t-42.5 -65q-3 -13 -3 -25q0 -37 23.5 -60t59.5 -23q46 0 85 39t39 85z" />
    <glyph glyph-name="ampersand" unicode="&#xf026;" horiz-adv-x="667" 
d="M644 333q-17 -61 -38 -96q-10 -18 -61 -85l92 -152h-109l-49 74q-114 -97 -227 -97q-78 0 -123 40.5t-45 108.5q0 22 5 46q14 65 61.5 117.5t144.5 105.5q-47 79 -47 130q0 76 67 131q63 53 140 53q61 0 98.5 -36t37.5 -89q0 -14 -3 -29q-10 -50 -47 -88
q-41 -44 -130 -88l97 -164q41 61 56 118h80zM506 564q2 8 2 15q0 28 -21.5 44t-54.5 16q-78 0 -95 -81q-4 -19 -4 -31q0 -31 48 -87q108 42 125 124zM448 134l-117 200q-160 -78 -160 -177q0 -42 30.5 -71.5t75.5 -29.5q74 0 171 78z" />
    <glyph glyph-name="parenleft" unicode="&#xf028;" horiz-adv-x="333" 
d="M445 729q-86 -111 -140 -216q-69 -133 -96 -262q-17 -82 -17 -159q0 -41 4 -87q9 -100 51 -218h-58q-61 137 -72 257q-10 117 11 217q26 121 100 251q71 123 163 217h54z" />
    <glyph glyph-name="parenright" unicode="&#xf029;" horiz-adv-x="333" 
d="M231 44q-62 -121 -181 -257h-56q86 112 141 218q66 127 91 246q19 92 19 197q0 34 -2 65q-7 92 -49 216h55q77 -159 77 -324q0 -175 -95 -361z" />
    <glyph glyph-name="asterisk" unicode="&#xf02a;" horiz-adv-x="389" 
d="M471 603l-113 -26l49 -90l-58 -36l-42 95l-84 -93l-40 36l87 88l-101 32l31 59l97 -40l20 112h62l-28 -112l112 37z" />
    <glyph glyph-name="plus" unicode="&#xf02b;" horiz-adv-x="584" 
d="M591 267l-15 -70h-207l-44 -207h-70l44 207h-207l15 70h207l44 207h70l-44 -207h207z" />
    <glyph glyph-name="comma" unicode="&#xf02c;" horiz-adv-x="278" 
d="M214 104l-24 -112q-7 -33 -38 -73q-41 -55 -97 -71l10 48q37 22 54 45q13 17 29 59h-60l22 104h104z" />
    <glyph glyph-name="uniF0AD" unicode="&#xf0ad;" horiz-adv-x="584" 
d="M602 270l-15 -74h-506l15 74h506z" />
    <glyph glyph-name="period" unicode="&#xf02e;" horiz-adv-x="278" 
d="M213 103l-22 -103h-104l22 103h104z" />
    <glyph glyph-name="slash" unicode="&#xf02f;" horiz-adv-x="278" 
d="M434 707l-391 -728h-55l390 728h56z" />
    <glyph glyph-name="zero" unicode="&#xf030;" 
d="M582 352q-79 -374 -312 -374q-171 0 -171 210q0 74 21 174q34 163 116 255t190 92q173 0 173 -210q0 -65 -17 -147zM494 343q17 81 17 139q0 141 -101 141q-87 0 -140 -87q-41 -66 -69 -199q-17 -82 -17 -139q0 -140 101 -139q148 1 209 284z" />
    <glyph glyph-name="one" unicode="&#xf031;" 
d="M498 709l-151 -709h-84l106 500h-161l15 69q103 15 134 33q37 23 83 107h58z" />
    <glyph glyph-name="two" unicode="&#xf032;" 
d="M615 496q-15 -69 -72 -127q-42 -43 -95 -69l-148 -73q-126 -62 -155 -143h378l-18 -84h-472q49 190 186 263l188 100q103 55 119 133q4 18 4 33q0 47 -31.5 73.5t-88.5 26.5q-133 0 -178 -166h-84q55 246 300 246q68 0 117 -38q56 -44 56 -123q0 -24 -6 -52z" />
    <glyph glyph-name="three" unicode="&#xf033;" 
d="M596 516q-20 -93 -120 -149q79 -43 79 -118q0 -23 -6 -52q-21 -97 -102.5 -158.5t-189.5 -61.5q-80 0 -130 38q-58 44 -58 130q0 28 7 61h84q-4 -21 -4 -41q0 -49 26.5 -79t74.5 -30q171 0 201 143q4 20 4 36q0 90 -130 90q-19 0 -42 -2l16 78q91 0 129 18q53 25 69 102
q3 13 3 25q0 82 -116 82q-123 0 -159 -149h-83q54 227 267 230q84 1 134.5 -39.5t50.5 -110.5q0 -21 -5 -43z" />
    <glyph glyph-name="four" unicode="&#xf034;" 
d="M573 250l-18 -83h-103l-35 -167h-84l35 167h-305l20 93l418 449h67l-98 -459h103zM454 568l-293 -318h225z" />
    <glyph glyph-name="five" unicode="&#xf035;" 
d="M629 709l-19 -88h-296l-70 -196q62 43 140 43q86 0 135.5 -48t49.5 -130q0 -30 -7 -63q-22 -104 -108 -176.5t-186 -72.5q-90 0 -144.5 45.5t-54.5 117.5q0 16 3 33h90q9 -66 34.5 -89.5t82.5 -23.5q151 0 185 164q5 22 5 42q0 55 -31.5 87t-84.5 32q-44 0 -79 -17
q-26 -12 -69 -47h-80l137 387h367z" />
    <glyph glyph-name="six" unicode="&#xf036;" 
d="M612 524h-92q4 12 4 24q0 33 -30 56.5t-72 23.5q-73 0 -131.5 -72.5t-90.5 -199.5q106 87 189 87q78 0 127 -50t49 -127q0 -24 -5 -49q-22 -105 -100 -171q-80 -69 -187 -69q-178 0 -178 205q0 63 17 144q81 383 342 383q67 0 114 -47q52 -53 44 -138zM470 216q5 22 5 42
q0 105 -115 105q-58 0 -109 -39q-55 -43 -70 -113q-4 -19 -4 -37q0 -53 32.5 -85.5t87.5 -32.5q52 0 97 33q58 43 76 127z" />
    <glyph glyph-name="seven" unicode="&#xf037;" 
d="M671 709l-16 -75q-212 -221 -320 -413q-64 -115 -103 -221h-95l7 16q57 123 90 181q71 122 325 428h-380l18 84h474z" />
    <glyph glyph-name="eight" unicode="&#xf038;" 
d="M601 526q-20 -92 -123 -151q35 -15 57.5 -55t22.5 -91q0 -22 -5 -44q-18 -85 -101 -146t-189 -61q-86 0 -138 46.5t-52 121.5q0 22 5 45q27 128 155 181q-65 41 -65 108q0 18 4 38q17 80 88 135.5t156 55.5q87 0 138 -40t51 -106q0 -18 -4 -37zM510 523q3 13 3 25
q0 38 -27.5 60t-76.5 22q-56 0 -96 -29.5t-50 -78.5q-3 -16 -3 -30q0 -83 103 -83q54 0 95 32t52 82zM463 199q4 18 4 35q0 98 -122 98q-70 0 -115.5 -38.5t-59.5 -102.5q-3 -14 -3 -28q0 -46 32.5 -75t85.5 -29q63 0 114 40.5t64 99.5z" />
    <glyph glyph-name="nine" unicode="&#xf039;" 
d="M586 362q-82 -384 -336 -384q-95 0 -134 45q-36 42 -32 134h88q-3 -11 -3 -21q0 -36 30 -57t74 -21q72 0 132.5 71.5t91.5 197.5q-93 -86 -184 -86q-85 0 -133.5 45.5t-48.5 124.5q0 28 7 60q22 104 102.5 171t180.5 67q181 0 181 -212q0 -60 -16 -135zM515 471
q4 20 4 39q0 54 -33 86t-92 32q-60 0 -106 -42.5t-62 -114.5q-5 -24 -5 -46q0 -52 29.5 -80t79.5 -28q67 0 119.5 45.5t65.5 108.5z" />
    <glyph glyph-name="colon" unicode="&#xf03a;" horiz-adv-x="278" 
d="M326 525l-23 -104h-104l23 104h104zM236 104l-22 -104h-104l22 104h104z" />
    <glyph glyph-name="semicolon" unicode="&#xf03b;" horiz-adv-x="278" 
d="M325 516l-22 -104h-104l22 104h104zM237 104l-24 -112q-7 -33 -38 -73q-41 -55 -97 -71l10 48q37 22 54 45q13 17 29 59h-60l22 104h104z" />
    <glyph glyph-name="less" unicode="&#xf03c;" horiz-adv-x="584" 
d="M635 476l-17 -81l-429 -162l360 -163l-17 -79l-445 206l15 69z" />
    <glyph glyph-name="equal" unicode="&#xf03d;" horiz-adv-x="584" 
d="M609 352l-15 -70h-484l15 70h484zM573 182l-15 -70h-484l15 70h484z" />
    <glyph glyph-name="greater" unicode="&#xf03e;" horiz-adv-x="584" 
d="M596 267l-15 -69l-533 -207l17 78l423 163l-354 163l17 79z" />
    <glyph glyph-name="question" unicode="&#xf03f;" 
d="M626 545q-17 -80 -80 -130l-117 -93q-34 -27 -56 -127h-91q15 112 70 157l131 107q20 16 37 53t17 63q0 39 -30.5 63.5t-79.5 24.5t-88 -31q-53 -42 -68 -128h-87q22 116 97 177q70 56 176 56q81 0 127.5 -40t46.5 -108q0 -21 -5 -44zM354 104l-22 -104h-92l22 104h92z
" />
    <glyph glyph-name="at" unicode="&#xf040;" horiz-adv-x="1015" 
d="M1027 369q-27 -126 -127 -221.5t-204 -95.5q-100 0 -102 76q-82 -70 -159 -70q-60 0 -94.5 35.5t-34.5 95.5q0 24 6 50q24 112 120.5 197.5t196.5 85.5q85 0 104 -89l38 65h82l-169 -318q-3 -6 -5 -14q-4 -18 7 -30t32 -12q63 0 138 74t92 155q6 28 6 55q0 113 -94 186
q-88 68 -208 68q-111 0 -224 -67.5t-184 -171.5q-75 -111 -75 -222q0 -115 77 -190q87 -83 241 -83q38 0 82 9q54 13 109 26l13 -69q-53 -14 -106 -27q-60 -13 -140 -13q-126 0 -231 69q-135 88 -135 249q0 43 10 91q39 181 211 325q179 148 377 148q156 0 256.5 -85.5
t100.5 -215.5q0 -32 -7 -66zM688 390q0 57 -81 58q-66 1 -132 -76q-59 -68 -73 -135q-3 -15 -3 -29q0 -38 21 -63t55 -25q71 0 145 102q68 96 68 168z" />
    <glyph glyph-name="A" unicode="&#xf041;" horiz-adv-x="667" 
d="M653 0h-105l-28 218h-279l-124 -218h-100l420 729h115zM509 296l-39 321l-187 -321h226z" />
    <glyph glyph-name="B" unicode="&#xf042;" horiz-adv-x="667" 
d="M707 542q-23 -112 -127 -155q93 -41 93 -132q0 -88 -73 -170q-75 -85 -160 -85h-361l155 729h328q52 0 97 -36q52 -43 52 -112q0 -19 -4 -39zM609 524q3 13 3 25q0 48 -43 74q-36 23 -89 23h-170l-49 -230h210q44 0 83 27q44 31 55 81zM577 210q4 17 4 32q0 91 -128 91
h-209l-53 -250h245q48 0 89 37t52 90z" />
    <glyph glyph-name="C" unicode="&#xf043;" horiz-adv-x="722" 
d="M770 504h-98q-27 153 -165 153q-101 0 -180 -83t-108 -221q-10 -47 -10 -89q0 -93 46 -148t128 -55q164 0 256 206h96q-129 -289 -370 -289q-119 0 -186 72.5t-67 197.5q0 52 12 110q34 162 137 267q112 115 267 115q102 0 165.5 -60.5t76.5 -175.5z" />
    <glyph glyph-name="D" unicode="&#xf044;" horiz-adv-x="722" 
d="M746 371q-36 -166 -146 -275q-98 -96 -193 -96h-318l155 729h296q84 0 145 -57q73 -69 73 -194q0 -50 -12 -107zM652 371q11 53 11 98q0 86 -41 131.5t-115 45.5h-187l-119 -563h212q84 0 149 81q62 78 90 207z" />
    <glyph glyph-name="E" unicode="&#xf045;" horiz-adv-x="667" 
d="M751 729l-18 -83h-412l-49 -230h396l-17 -83h-396l-53 -250h429l-18 -83h-523l155 729h506z" />
    <glyph glyph-name="F" unicode="&#xf046;" horiz-adv-x="611" 
d="M734 729l-18 -83h-395l-49 -230h346l-17 -83h-346l-71 -333h-94l155 729h489z" />
    <glyph glyph-name="G" unicode="&#xf047;" horiz-adv-x="778" 
d="M807 509h-89q-3 73 -55 112q-49 36 -128 36q-116 0 -203.5 -83t-116.5 -218q-10 -46 -10 -87q0 -98 53.5 -154.5t148.5 -56.5q99 0 180 63q89 70 102 182h-222l18 84h306l-83 -391h-60l-3 90q-85 -63 -142 -85.5t-133 -22.5q-125 0 -193.5 74t-68.5 197q0 49 11 102
q37 172 148 276q122 114 299 114q131 0 195 -73q48 -55 48 -133q0 -14 -2 -26z" />
    <glyph glyph-name="H" unicode="&#xf048;" horiz-adv-x="722" 
d="M799 729l-155 -729h-94l71 333h-373l-71 -333h-94l155 729h94l-67 -313h373l67 313h94z" />
    <glyph glyph-name="I" unicode="&#xf049;" horiz-adv-x="278" 
d="M349 729l-155 -729h-94l155 729h94z" />
    <glyph glyph-name="J" unicode="&#xf04a;" horiz-adv-x="500" 
d="M581 729l-121 -569q-12 -56 -64 -108q-74 -74 -184 -74q-82 0 -127 42q-40 37 -40 96q0 17 4 34l17 82h94l-13 -64q-3 -14 -3 -27q0 -37 22 -58.5t61 -21.5q51 0 91.5 34t53.5 95l115 539h94z" />
    <glyph glyph-name="K" unicode="&#xf04b;" horiz-adv-x="667" 
d="M811 729l-362 -297l207 -432h-110l-175 367l-145 -119l-53 -248h-94l155 729h94l-77 -363l438 363h122z" />
    <glyph glyph-name="L" unicode="&#xf04c;" 
d="M551 83l-18 -83h-453l155 729h94l-137 -646h359z" />
    <glyph glyph-name="M" unicode="&#xf04d;" horiz-adv-x="833" 
d="M916 729l-155 -729h-96l125 588l-324 -588h-96l-73 591l-126 -591h-96l155 729h133l78 -621l342 621h133z" />
    <glyph glyph-name="N" unicode="&#xf04e;" horiz-adv-x="722" 
d="M801 729l-155 -729h-107l-245 582l-124 -582h-94l155 729h111l240 -589l125 589h94z" />
    <glyph glyph-name="O" unicode="&#xf04f;" horiz-adv-x="778" 
d="M817 353q-35 -168 -155 -271.5t-280 -103.5q-130 0 -204.5 75.5t-74.5 203.5q0 49 11 102q35 164 146 269q119 112 285 112q140 0 215 -81q68 -75 68 -202q0 -50 -11 -104zM724 362q9 42 9 81q0 97 -52.5 155t-148.5 58q-126 0 -214 -87q-81 -80 -109 -210
q-10 -46 -10 -87q0 -98 54 -154.5t150 -56.5q126 0 214 91q80 82 107 210z" />
    <glyph glyph-name="P" unicode="&#xf050;" horiz-adv-x="667" 
d="M728 522q-21 -98 -93 -158q-67 -55 -145 -55h-239l-66 -309h-94l155 729h318q83 0 128 -44q42 -41 42 -110q0 -26 -6 -53zM633 522q3 13 3 26q0 41 -26 69.5t-65 28.5h-223l-54 -254h235q35 0 73 33q45 39 57 97z" />
    <glyph glyph-name="Q" unicode="&#xf051;" horiz-adv-x="778" 
d="M819 360q-36 -169 -164 -283l79 -77l-62 -59l-84 85q-100 -48 -189 -48q-149 0 -226 77q-70 70 -70 197q0 51 12 110q31 148 135 253q123 125 297 125q136 0 212 -79q71 -76 71 -202q0 -47 -11 -99zM724 356q9 41 9 81q0 95 -47 153q-53 67 -154 67q-117 0 -205.5 -81.5
t-117.5 -216.5q-10 -46 -10 -87q0 -99 55 -155t154 -56q36 0 60 6q10 3 57 21l-59 62l57 55l74 -72q29 27 52 59q56 76 75 164z" />
    <glyph glyph-name="R" unicode="&#xf052;" horiz-adv-x="722" 
d="M762 523q-20 -95 -129 -163q58 -45 58 -88q0 -12 -3 -34q-9 -46 -25 -152q-4 -37 21 -62l-5 -24h-113q-6 35 -4 68q2 40 21 113q5 28 5 50q0 82 -89 82h-245l-67 -313h-94l155 729h334q188 0 188 -136q0 -30 -8 -70zM671 535q3 13 3 26q0 40 -29 62.5t-77 22.5h-244
l-53 -250h245q125 0 155 139z" />
    <glyph glyph-name="S" unicode="&#xf053;" horiz-adv-x="667" 
d="M708 516h-89q3 16 3 30q0 117 -156 117q-66 0 -125 -37q-68 -42 -68 -105q0 -59 78 -81l215 -60q46 -13 74 -51t28 -90q0 -21 -5 -42q-21 -98 -113 -158.5t-223 -60.5q-237 0 -237 188q0 30 7 65h86q-3 -20 -3 -38q0 -70 44.5 -102t140.5 -32q73 0 133 40q69 45 69 114
q0 64 -86 88l-187 52q-115 32 -115 130q0 20 5 43q20 96 100 155t190 59q239 0 239 -172q0 -24 -5 -52z" />
    <glyph glyph-name="T" unicode="&#xf054;" horiz-adv-x="611" 
d="M748 729l-18 -83h-238l-137 -646h-94l137 646h-240l18 83h572z" />
    <glyph glyph-name="U" unicode="&#xf055;" horiz-adv-x="722" 
d="M800 729l-114 -534q-17 -78 -91 -140q-94 -77 -233 -77q-124 0 -188 61q-52 49 -52 121q0 18 4 35l114 534h94l-113 -531q-2 -10 -2 -21q0 -49 44.5 -85t115.5 -36q75 0 138.5 42t77.5 107l111 524h94z" />
    <glyph glyph-name="V" unicode="&#xf056;" horiz-adv-x="667" 
d="M800 729l-411 -729h-101l-103 729h100l80 -616l335 616h100z" />
    <glyph glyph-name="W" unicode="&#xf057;" horiz-adv-x="944" 
d="M1084 729l-341 -729h-103l-40 596l-291 -596h-103l-29 729h104l10 -586l288 586h101l37 -586l263 586h104z" />
    <glyph glyph-name="X" unicode="&#xf058;" horiz-adv-x="667" 
d="M794 729l-319 -354l174 -375h-116l-131 296l-264 -296h-116l335 373l-162 356h114l126 -279l245 279h114z" />
    <glyph glyph-name="Y" unicode="&#xf059;" horiz-adv-x="667" 
d="M816 729l-369 -443l-61 -286h-94l61 286l-185 443h115l136 -354l282 354h115z" />
    <glyph glyph-name="Z" unicode="&#xf05a;" horiz-adv-x="611" 
d="M737 729l-18 -85l-554 -561h436l-18 -83h-555l17 79l555 567h-404l18 83h523z" />
    <glyph glyph-name="bracketleft" unicode="&#xf05b;" horiz-adv-x="278" 
d="M405 729l-16 -75h-101l-169 -793h101l-15 -75h-186l200 943h186z" />
    <glyph glyph-name="backslash" unicode="&#xf05c;" horiz-adv-x="278" 
d="M279 -19h-54l-78 748h55z" />
    <glyph glyph-name="bracketright" unicode="&#xf05d;" horiz-adv-x="278" 
d="M364 729l-201 -944h-186l16 75h101l169 794h-101l16 75h186z" />
    <glyph glyph-name="asciicircum" unicode="&#xf05e;" horiz-adv-x="469" 
d="M496 333h-69l-60 297l-182 -297h-71l236 380h73z" />
    <glyph glyph-name="underscore" unicode="&#xf05f;" 
d="M551 -125l-10 -50h-600l10 50h600z" />
    <glyph glyph-name="grave" unicode="&#xf091;" horiz-adv-x="222" 
d="M308 707l-8 -39q-30 -17 -44 -36q-18 -24 -27 -68h48l-22 -105h-92l24 115q9 45 38 81q35 45 83 52z" />
    <glyph glyph-name="a" unicode="&#xf061;" 
d="M568 434l-75 -355q-2 -11 6.5 -20.5t20.5 -10.5q9 -1 26 2l-14 -64q-34 -9 -67 -9q-27 0 -46 24.5t-17 51.5q-107 -75 -192 -75q-68 0 -106 30.5t-38 85.5q0 18 4 38q29 136 197 158l152 20q36 5 47 57q10 44 8 51q-4 21 -39 34t-83 13q-93 0 -130 -97h-76q10 78 79 126
q65 46 156 46q82 0 135 -27t53 -67q0 -6 -1 -12zM443 255q-65 -17 -190 -35q-38 -7 -67 -36q-32 -31 -32 -68q0 -30 22 -48.5t58 -18.5q68 0 125.5 38t67.5 87z" />
    <glyph glyph-name="b" unicode="&#xf062;" 
d="M577 256q-27 -125 -105.5 -201.5t-183.5 -76.5q-48 0 -79 17q-27 15 -70 61l-12 -56h-73l155 729h84l-57 -268q68 79 179 79q84 0 128.5 -49t44.5 -138q0 -45 -11 -97zM485 262q8 37 8 68q0 125 -107 125q-152 0 -197 -211q-6 -28 -6 -54q0 -61 30 -97.5t78 -36.5
q72 0 125 58q49 55 69 148z" />
    <glyph glyph-name="c" unicode="&#xf063;" horiz-adv-x="500" 
d="M552 348h-86q2 13 2 25q0 89 -102 89q-67 0 -119 -57t-72 -153q-8 -37 -8 -68q0 -128 111 -128q53 0 89 28.5t68 96.5h81q-63 -203 -259 -203q-88 0 -135.5 49t-47.5 137q0 39 10 84q28 132 110 212t190 80q170 0 170 -157q0 -16 -2 -35z" />
    <glyph glyph-name="d" unicode="&#xf064;" 
d="M650 729l-155 -729h-73l13 59q-62 -50 -96 -65.5t-84 -15.5q-89 0 -136.5 50t-47.5 142q0 42 10 91q27 125 104.5 202t178.5 77q98 0 145 -77l57 266h84zM465 251q9 42 9 75q0 128 -127 128q-61 0 -107.5 -54t-64.5 -139q-8 -38 -8 -71q0 -62 29 -98t83 -36q67 0 117 52
t69 143z" />
    <glyph glyph-name="e" unicode="&#xf065;" 
d="M561 229h-383q-9 -22 -9 -53q0 -53 33 -89.5t84 -36.5q104 0 164 110h86q-81 -182 -256 -182q-196 0 -196 185q0 44 12 99q26 122 109.5 200t188.5 78q84 0 131 -44q53 -48 53 -144q0 -59 -17 -123zM487 303q3 26 3 47q0 122 -108 122q-129 0 -185 -169h290z" />
    <glyph glyph-name="f" unicode="&#xf066;" horiz-adv-x="278" 
d="M413 729l-15 -72q-26 4 -28 4q-37 0 -53 -21q-12 -17 -22 -66l-10 -49h85l-17 -77h-85l-95 -448h-84l95 448h-71l17 77h71l19 90q9 41 38 73q42 44 107 44q10 0 48 -3z" />
    <glyph glyph-name="g" unicode="&#xf067;" 
d="M601 525l-103 -481q-36 -168 -154 -231q-62 -34 -138 -34q-81 0 -130 40q-45 37 -45 93q0 14 3 28h86q-1 -7 -1 -14q0 -37 40 -58q31 -15 65 -15q148 0 184 169q4 13 11 41q-112 -86 -184 -86q-69 0 -114 49q-48 52 -48 144q0 39 10 84q29 134 107 210t178 76
q94 0 134 -82l15 67h84zM458 249q10 45 10 79q0 120 -121 120q-62 0 -110 -55.5t-68 -150.5q-7 -31 -7 -59q0 -59 29 -93.5t83 -34.5q63 0 114.5 54.5t69.5 139.5z" />
    <glyph glyph-name="h" unicode="&#xf068;" 
d="M573 407l-87 -407h-84l82 384q1 6 1 13q0 29 -26 49t-65 20q-48 0 -102 -35t-62 -75l-76 -356h-84l155 729h84l-56 -263q99 73 184 73q59 0 98.5 -32.5t39.5 -79.5q0 -10 -2 -20z" />
    <glyph glyph-name="i" unicode="&#xf069;" horiz-adv-x="222" 
d="M305 729l-22 -104h-84l22 104h84zM262 525l-112 -525h-84l112 525h84z" />
    <glyph glyph-name="j" unicode="&#xf06a;" horiz-adv-x="222" 
d="M308 729l-22 -104h-84l22 104h84zM265 525l-136 -640q-9 -41 -45 -70q-42 -35 -105 -35h-44l16 76q87 0 98 50l132 619h84z" />
    <glyph glyph-name="k" unicode="&#xf06b;" horiz-adv-x="500" 
d="M584 525l-221 -183l139 -342h-103l-113 280l-102 -84l-42 -196h-84l155 729h84l-90 -423l268 219h109z" />
    <glyph glyph-name="l" unicode="&#xf06c;" horiz-adv-x="222" 
d="M307 729l-155 -729h-84l155 729h84z" />
    <glyph glyph-name="m" unicode="&#xf06d;" horiz-adv-x="833" 
d="M852 417l-89 -417h-84l79 371q2 10 2 19q0 31 -20 53t-60 22q-52 0 -94.5 -35.5t-52.5 -83.5l-74 -346h-84l82 384q1 6 1 13q0 29 -24 49t-60 20q-42 0 -89 -37.5t-57 -83.5l-73 -345h-84l112 525h84l-15 -68q56 83 178 83q48 0 73.5 -17t45.5 -61q55 57 109 72
q24 6 86 6q50 0 80 -31t30 -72q0 -10 -2 -20z" />
    <glyph glyph-name="n" unicode="&#xf06e;" 
d="M571 395l-84 -395h-84l81 382q1 6 1 12q0 28 -25 49t-65 21q-62 0 -112 -45.5t-65 -115.5l-64 -303h-84l112 525h84l-15 -68q71 83 173 83q151 0 151 -112q0 -16 -4 -33z" />
    <glyph glyph-name="o" unicode="&#xf06f;" 
d="M567 266q-27 -127 -95 -202q-80 -86 -204 -86q-187 0 -187 188q0 45 12 100q27 128 104 201t191 73q93 0 141 -49t48 -138q0 -40 -10 -87zM481 266q7 31 7 59q0 62 -34 98q-31 33 -84 33q-64 0 -116 -49q-56 -52 -75 -141q-8 -37 -8 -69q0 -64 30 -100t85 -36
q69 0 122 56t73 149z" />
    <glyph glyph-name="p" unicode="&#xf070;" 
d="M578 254q-26 -122 -105 -199t-180 -77q-102 0 -143 79l-59 -276h-84l159 744h73l-14 -65q52 46 90.5 63t91.5 17q85 0 133 -52t48 -145q0 -42 -10 -89zM481 249q9 42 9 78q0 134 -109 134q-68 0 -117.5 -51t-69.5 -144q-8 -37 -8 -71q0 -132 105 -132q74 0 125 52
q47 49 65 134z" />
    <glyph glyph-name="q" unicode="&#xf071;" 
d="M607 525l-159 -744h-84l59 276q-72 -79 -179 -79q-82 0 -127.5 51.5t-45.5 141.5q0 41 10 88q28 130 107 205.5t188 75.5q48 0 74.5 -14.5t69.5 -63.5l14 63h73zM468 264q9 36 9 69q0 58 -28 92q-31 37 -89 37q-66 0 -116.5 -58.5t-69.5 -148.5q-8 -36 -8 -68
q0 -58 27 -91t76 -33q151 0 199 201z" />
    <glyph glyph-name="r" unicode="&#xf072;" horiz-adv-x="333" 
d="M435 538l-18 -87q-4 0 -13 -1h-12q-59 2 -111 -43t-66 -113l-62 -294h-84l112 525h84l-18 -84q71 99 165 99q8 0 23 -2z" />
    <glyph glyph-name="s" unicode="&#xf073;" horiz-adv-x="500" 
d="M517 378h-83q2 11 2 20q0 64 -101 64q-42 0 -82 -24q-46 -27 -46 -67t61 -56l129 -33q97 -25 97 -104q0 -16 -4 -34q-16 -77 -88 -123q-67 -43 -159 -43q-99 0 -142 32q-39 30 -39 92q0 23 5 53h81q-2 -12 -2 -23q0 -42 35 -64q30 -20 76 -20q55 0 97 21q52 27 52 77
q0 46 -53 59l-125 31q-103 26 -103 105q0 19 5 43q15 71 79.5 113.5t156.5 42.5q155 0 155 -123q0 -18 -4 -39z" />
    <glyph glyph-name="t" unicode="&#xf074;" horiz-adv-x="278" 
d="M366 525l-17 -77h-83l-78 -370q-5 -25 31 -25q15 0 47 5l-16 -75q-38 -7 -73 -7q-39 0 -61 20q-19 17 -19 43q0 7 1 13l84 396h-73l17 77h73l30 142h84l-30 -142h83z" />
    <glyph glyph-name="u" unicode="&#xf075;" 
d="M594 525l-112 -525h-84l12 58q-40 -44 -78 -61q-42 -19 -109 -19q-135 0 -135 110q0 17 3 32l86 405h84l-82 -385q-2 -9 -2 -17q0 -30 22.5 -49.5t58.5 -19.5q63 0 117 46.5t68 111.5l67 313h84z" />
    <glyph glyph-name="v" unicode="&#xf076;" horiz-adv-x="500" 
d="M598 525l-313 -525h-91l-72 525h94l45 -424l243 424h94z" />
    <glyph glyph-name="w" unicode="&#xf077;" horiz-adv-x="722" 
d="M820 525l-267 -525h-95l-21 401l-186 -401h-95l-38 525h94l16 -410l189 410h104l9 -410l196 410h94z" />
    <glyph glyph-name="x" unicode="&#xf078;" horiz-adv-x="500" 
d="M583 525l-233 -255l123 -270h-94l-91 196l-176 -196h-95l241 269l-118 256h95l87 -185l167 185h94z" />
    <glyph glyph-name="y" unicode="&#xf079;" horiz-adv-x="500" 
d="M590 525l-367 -631q-66 -113 -166 -113q-31 0 -49 12l17 80q29 -12 52 -12q30 0 60 41q3 5 53 90l-58 533h89l48 -396l231 396h90z" />
    <glyph glyph-name="z" unicode="&#xf07a;" horiz-adv-x="500" 
d="M557 525l-16 -73l-379 -369h313l-18 -83h-426l15 70l386 372h-285l18 83h392z" />
    <glyph glyph-name="braceleft" unicode="&#xf07b;" horiz-adv-x="334" 
d="M432 732l-15 -67l-28 -2q-30 -2 -43 -13t-19 -40l-44 -205q-19 -90 -104 -147q44 -37 44 -110q0 -21 -4 -40l-43 -201q-3 -13 -3 -22q0 -28 44 -31l28 -2l-14 -66l-72 3q-24 1 -42.5 28.5t-18.5 61.5q0 10 2 20l43 204q6 26 6 46q0 65 -58 75l14 69q81 11 105 125l42 198
q8 37 42.5 74t62.5 38z" />
    <glyph glyph-name="bar" unicode="&#xf07c;" horiz-adv-x="260" 
d="M315 729l-201 -944h-61l201 944h61z" />
    <glyph glyph-name="braceright" unicode="&#xf07d;" horiz-adv-x="334" 
d="M324 293l-14 -69q-81 -13 -104 -121l-43 -204q-8 -38 -43 -73.5t-64 -36.5l-72 -3l14 66l28 2q32 2 44.5 12.5t18.5 40.5l43 201q21 98 104 150q-46 43 -46 110q0 19 4 37l44 205q3 13 3 21q0 29 -43 32l-28 2l15 67l73 -4q23 -1 41 -29.5t18 -62.5q0 -10 -2 -20
l-42 -198q-6 -28 -6 -49q0 -68 57 -76z" />
    <glyph glyph-name="asciitilde" unicode="&#xf07e;" horiz-adv-x="584" 
d="M595 411q-9 -55 -46 -97q-40 -47 -89 -47q-41 0 -77 27l-76 57q-31 23 -46 23q-21 0 -40 -19q-23 -23 -30 -64h-54q17 69 53.5 108t84.5 39q31 0 51 -14l100 -69q29 -20 49 -20q62 0 67 76h53z" />
    <glyph glyph-name="uniF0C4" unicode="&#xf0c4;" horiz-adv-x="667" 
d="M656 907l-22 -103h-92l22 103h92zM482 907l-22 -103h-92l22 103h92zM653 0h-105l-28 218h-279l-124 -218h-100l420 729h115zM509 296l-39 321l-187 -321h226z" />
    <glyph glyph-name="uniF0C5" unicode="&#xf0c5;" horiz-adv-x="667" 
d="M497 765q-31 0 -51.5 20t-20.5 50q0 40 34 72.5t75 32.5q31 0 51 -20t20 -50q0 -41 -33.5 -73t-74.5 -32zM653 0h-105l-28 218h-279l-124 -218h-100l420 729h115zM568 862q0 18 -12 30t-30 12q-24 0 -44 -19.5t-20 -42.5q0 -18 12 -29.5t30 -11.5q24 0 44 18.5t20 42.5z
M509 296l-39 321l-187 -321h226z" />
    <glyph glyph-name="Ccedilla" unicode="&#xf0c7;" horiz-adv-x="722" 
d="M772 503h-100q-27 154 -165 154q-101 0 -180 -83t-108 -221q-10 -47 -10 -89q0 -93 46 -148t128 -55q165 0 257 206h96q-118 -266 -332 -287l-19 -35q17 2 26 2q62 0 62 -49q0 -7 -2 -15q-22 -98 -150 -98q-29 0 -53 9q-30 13 -59 26l32 42q53 -34 90 -34q24 0 43 14.5
t19 36.5q0 32 -30 32q-9 0 -27 -10l-10 9l35 68q-117 1 -183 73.5t-66 195.5q0 53 12 111q34 162 137 267q112 115 267 115q102 0 166.5 -61t77.5 -176z" />
    <glyph glyph-name="uniF0C9" unicode="&#xf0c9;" horiz-adv-x="667" 
d="M689 939l-179 -148h-62l129 148h112zM751 729l-18 -83h-412l-49 -230h396l-17 -83h-396l-53 -250h429l-18 -83h-523l155 729h506z" />
    <glyph glyph-name="uniF0D1" unicode="&#xf0d1;" horiz-adv-x="722" 
d="M715 915q-24 -57 -67 -86q-31 -21 -57 -21q-10 0 -35 6l-55 13q-13 3 -30 3q-30 0 -52 -41h-45q48 109 112 109q14 0 41 -5l55 -10q17 -3 40 -3q22 0 52 35h41zM801 729l-155 -729h-107l-245 582l-124 -582h-94l155 729h111l240 -589l125 589h94z" />
    <glyph glyph-name="Odieresis" unicode="&#xf0d6;" horiz-adv-x="778" 
d="M712 907l-22 -103h-92l22 103h92zM538 907l-22 -103h-92l22 103h92zM817 353q-35 -168 -155 -271.5t-280 -103.5q-130 0 -204.5 75.5t-74.5 203.5q0 49 11 102q35 164 146 269q119 112 285 112q140 0 215 -81q68 -75 68 -202q0 -50 -11 -104zM724 362q9 42 9 81
q0 97 -52.5 155t-148.5 58q-126 0 -214 -87q-81 -80 -109 -210q-10 -46 -10 -87q0 -98 54 -154.5t150 -56.5q126 0 214 91q80 82 107 210z" />
    <glyph glyph-name="uniF0DC" unicode="&#xf0dc;" horiz-adv-x="722" 
d="M684 907l-22 -103h-92l22 103h92zM510 907l-22 -103h-92l22 103h92zM800 729l-114 -534q-17 -78 -91 -140q-94 -77 -233 -77q-124 0 -188 61q-52 49 -52 121q0 18 4 35l114 534h94l-113 -531q-2 -10 -2 -21q0 -49 44.5 -85t115.5 -36q75 0 138.5 42t77.5 107l111 524h94z
" />
    <glyph glyph-name="aacute" unicode="&#xf0e1;" 
d="M570 740l-178 -148h-62l128 148h112zM568 434l-75 -355q-2 -11 6.5 -20.5t20.5 -10.5q9 -1 26 2l-14 -64q-34 -9 -67 -9q-27 0 -46 24.5t-17 51.5q-107 -75 -192 -75q-68 0 -106 30.5t-38 85.5q0 18 4 38q29 136 197 158l152 20q36 5 47 57q10 44 8 51q-4 21 -39 34
t-83 13q-93 0 -130 -97h-76q10 78 79 126q65 46 156 46q82 0 135 -27t53 -67q0 -6 -1 -12zM443 255q-65 -17 -190 -35q-38 -7 -67 -36q-32 -31 -32 -68q0 -30 22 -48.5t58 -18.5q68 0 125.5 38t67.5 87z" />
    <glyph glyph-name="uniF0E0" unicode="&#xf0e0;" 
d="M469 592h-61l-117 148h112zM568 434l-75 -355q-2 -11 6.5 -20.5t20.5 -10.5q9 -1 26 2l-14 -64q-34 -9 -67 -9q-27 0 -46 24.5t-17 51.5q-107 -75 -192 -75q-68 0 -106 30.5t-38 85.5q0 18 4 38q29 136 197 158l152 20q36 5 47 57q10 44 8 51q-4 21 -39 34t-83 13
q-93 0 -130 -97h-76q10 78 79 126q65 46 156 46q82 0 135 -27t53 -67q0 -6 -1 -12zM443 255q-65 -17 -190 -35q-38 -7 -67 -36q-32 -31 -32 -68q0 -30 22 -48.5t58 -18.5q68 0 125.5 38t67.5 87z" />
    <glyph glyph-name="uniF0E2" unicode="&#xf0e2;" 
d="M545 591h-64l-60 95l-99 -95h-64l128 150h95zM568 434l-75 -355q-2 -11 6.5 -20.5t20.5 -10.5q9 -1 26 2l-14 -64q-34 -9 -67 -9q-27 0 -46 24.5t-17 51.5q-107 -75 -192 -75q-68 0 -106 30.5t-38 85.5q0 18 4 38q29 136 197 158l152 20q36 5 47 57q10 44 8 51
q-4 21 -39 34t-83 13q-93 0 -130 -97h-76q10 78 79 126q65 46 156 46q82 0 135 -27t53 -67q0 -6 -1 -12zM443 255q-65 -17 -190 -35q-38 -7 -67 -36q-32 -31 -32 -68q0 -30 22 -48.5t58 -18.5q68 0 125.5 38t67.5 87z" />
    <glyph glyph-name="uniF0E4" unicode="&#xf0e4;" 
d="M558 708l-21 -103h-92l21 103h92zM384 708l-21 -103h-92l21 103h92zM568 434l-75 -355q-2 -11 6.5 -20.5t20.5 -10.5q9 -1 26 2l-14 -64q-34 -9 -67 -9q-27 0 -46 24.5t-17 51.5q-107 -75 -192 -75q-68 0 -106 30.5t-38 85.5q0 18 4 38q29 136 197 158l152 20q36 5 47 57
q10 44 8 51q-4 21 -39 34t-83 13q-93 0 -130 -97h-76q10 78 79 126q65 46 156 46q82 0 135 -27t53 -67q0 -6 -1 -12zM443 255q-65 -17 -190 -35q-38 -7 -67 -36q-32 -31 -32 -68q0 -30 22 -48.5t58 -18.5q68 0 125.5 38t67.5 87z" />
    <glyph glyph-name="uniF0E3" unicode="&#xf0e3;" 
d="M584 716q-24 -56 -68 -86q-31 -21 -57 -21q-8 0 -34 6l-56 13q-13 3 -29 3q-29 0 -53 -41h-45q50 109 113 109q14 0 41 -5l54 -10q16 -3 41 -3q20 0 52 35h41zM568 434l-75 -355q-2 -11 6.5 -20.5t20.5 -10.5q9 -1 26 2l-14 -64q-34 -9 -67 -9q-27 0 -46 24.5t-17 51.5
q-107 -75 -192 -75q-68 0 -106 30.5t-38 85.5q0 18 4 38q29 136 197 158l152 20q36 5 47 57q10 44 8 51q-4 21 -39 34t-83 13q-93 0 -130 -97h-76q10 78 79 126q65 46 156 46q82 0 135 -27t53 -67q0 -6 -1 -12zM443 255q-65 -17 -190 -35q-38 -7 -67 -36q-32 -31 -32 -68
q0 -30 22 -48.5t58 -18.5q68 0 125.5 38t67.5 87z" />
    <glyph glyph-name="aring" unicode="&#xf0e5;" 
d="M398 565q-31 0 -51 19.5t-20 49.5q0 40 33.5 73t74.5 33q31 0 51.5 -20t20.5 -50q0 -41 -34 -73t-75 -32zM568 434l-75 -355q-2 -11 6.5 -20.5t20.5 -10.5q9 -1 26 2l-14 -64q-34 -9 -67 -9q-27 0 -46 24.5t-17 51.5q-107 -75 -192 -75q-68 0 -106 30.5t-38 85.5
q0 18 4 38q29 136 197 158l152 20q36 5 47 57q10 44 8 51q-4 21 -39 34t-83 13q-93 0 -130 -97h-76q10 78 79 126q65 46 156 46q82 0 135 -27t53 -67q0 -6 -1 -12zM470 662q0 18 -12 30t-30 12q-24 0 -44 -19.5t-20 -42.5q0 -18 12 -29.5t30 -11.5q24 0 44 18.5t20 42.5z
M443 255q-65 -17 -190 -35q-38 -7 -67 -36q-32 -31 -32 -68q0 -30 22 -48.5t58 -18.5q68 0 125.5 38t67.5 87z" />
    <glyph glyph-name="ccedilla" unicode="&#xf0e7;" horiz-adv-x="500" 
d="M552 347h-86q2 13 2 25q0 90 -102 90q-68 0 -120.5 -57t-72.5 -153q-8 -36 -8 -67q0 -61 29.5 -95t83.5 -34q53 0 88.5 28.5t67.5 96.5h82q-55 -182 -223 -201l-19 -35q17 2 26 2q62 0 62 -49q0 -7 -2 -15q-22 -98 -150 -98q-29 0 -53 9q-30 13 -59 26l32 42
q53 -34 90 -34q24 0 43 14.5t19 36.5q0 32 -30 32q-9 0 -27 -10l-10 9l35 68q-84 2 -129.5 51t-45.5 135q0 39 9 84q28 132 110 212t190 80q76 0 120 -36q50 -40 50 -122q0 -16 -2 -35z" />
    <glyph glyph-name="eacute" unicode="&#xf0e9;" 
d="M576 740l-178 -148h-62l128 148h112zM561 229h-383q-9 -22 -9 -53q0 -53 33 -89.5t84 -36.5q104 0 164 110h86q-81 -182 -256 -182q-196 0 -196 185q0 44 12 99q26 122 109.5 200t188.5 78q84 0 131 -44q53 -48 53 -144q0 -59 -17 -123zM487 303q3 26 3 47
q0 122 -108 122q-129 0 -185 -169h290z" />
    <glyph glyph-name="egrave" unicode="&#xf0e8;" 
d="M475 592h-61l-117 148h112zM561 229h-383q-9 -22 -9 -53q0 -53 33 -89.5t84 -36.5q104 0 164 110h86q-81 -182 -256 -182q-196 0 -196 185q0 44 12 99q26 122 109.5 200t188.5 78q84 0 131 -44q53 -48 53 -144q0 -59 -17 -123zM487 303q3 26 3 47q0 122 -108 122
q-129 0 -185 -169h290z" />
    <glyph glyph-name="ecircumflex" unicode="&#xf0ea;" 
d="M551 591h-64l-60 95l-99 -95h-64l128 150h95zM561 229h-383q-9 -22 -9 -53q0 -53 33 -89.5t84 -36.5q104 0 164 110h86q-81 -182 -256 -182q-196 0 -196 185q0 44 12 99q26 122 109.5 200t188.5 78q84 0 131 -44q53 -48 53 -144q0 -59 -17 -123zM487 303q3 26 3 47
q0 122 -108 122q-129 0 -185 -169h290z" />
    <glyph glyph-name="edieresis" unicode="&#xf0eb;" 
d="M564 708l-21 -103h-92l21 103h92zM390 708l-21 -103h-92l21 103h92zM561 229h-383q-9 -22 -9 -53q0 -53 33 -89.5t84 -36.5q104 0 164 110h86q-81 -182 -256 -182q-196 0 -196 185q0 44 12 99q26 122 109.5 200t188.5 78q84 0 131 -44q53 -48 53 -144q0 -59 -17 -123z
M487 303q3 26 3 47q0 122 -108 122q-129 0 -185 -169h290z" />
    <glyph glyph-name="iacute" unicode="&#xf0ed;" horiz-adv-x="278" 
d="M432 740l-178 -148h-62l128 148h112zM290 525l-112 -525h-84l112 525h84z" />
    <glyph glyph-name="igrave" unicode="&#xf0ec;" horiz-adv-x="278" 
d="M330 592h-61l-117 148h112zM290 525l-112 -525h-84l112 525h84z" />
    <glyph glyph-name="icircumflex" unicode="&#xf0ee;" horiz-adv-x="278" 
d="M404 591h-64l-60 95l-99 -95h-64l128 150h95zM290 525l-112 -525h-84l112 525h84z" />
    <glyph glyph-name="idieresis" unicode="&#xf0ef;" horiz-adv-x="278" 
d="M419 708l-21 -103h-92l21 103h92zM245 708l-21 -103h-92l21 103h92zM290 525l-112 -525h-84l112 525h84z" />
    <glyph glyph-name="ntilde" unicode="&#xf0f1;" 
d="M590 716q-24 -56 -68 -86q-31 -21 -57 -21q-8 0 -34 6l-56 13q-13 3 -29 3q-29 0 -53 -41h-45q50 109 113 109q14 0 41 -5l54 -10q16 -3 41 -3q20 0 52 35h41zM571 395l-84 -395h-84l81 382q1 6 1 12q0 28 -25 49t-65 21q-62 0 -112 -45.5t-65 -115.5l-64 -303h-84
l112 525h84l-15 -68q71 83 173 83q151 0 151 -112q0 -16 -4 -33z" />
    <glyph glyph-name="oacute" unicode="&#xf0f3;" 
d="M570 740l-178 -148h-62l128 148h112zM567 266q-27 -127 -95 -202q-80 -86 -204 -86q-187 0 -187 188q0 45 12 100q27 128 104 201t191 73q93 0 141 -49t48 -138q0 -40 -10 -87zM481 266q7 31 7 59q0 62 -34 98q-31 33 -84 33q-64 0 -116 -49q-56 -52 -75 -141
q-8 -37 -8 -69q0 -64 30 -100t85 -36q69 0 122 56t73 149z" />
    <glyph glyph-name="ograve" unicode="&#xf0f2;" 
d="M469 592h-61l-117 148h112zM567 266q-27 -127 -95 -202q-80 -86 -204 -86q-187 0 -187 188q0 45 12 100q27 128 104 201t191 73q93 0 141 -49t48 -138q0 -40 -10 -87zM481 266q7 31 7 59q0 62 -34 98q-31 33 -84 33q-64 0 -116 -49q-56 -52 -75 -141q-8 -37 -8 -69
q0 -64 30 -100t85 -36q69 0 122 56t73 149z" />
    <glyph glyph-name="ocircumflex" unicode="&#xf0f4;" 
d="M545 591h-64l-60 95l-99 -95h-64l128 150h95zM567 266q-27 -127 -95 -202q-80 -86 -204 -86q-187 0 -187 188q0 45 12 100q27 128 104 201t191 73q93 0 141 -49t48 -138q0 -40 -10 -87zM481 266q7 31 7 59q0 62 -34 98q-31 33 -84 33q-64 0 -116 -49q-56 -52 -75 -141
q-8 -37 -8 -69q0 -64 30 -100t85 -36q69 0 122 56t73 149z" />
    <glyph glyph-name="odieresis" unicode="&#xf0f6;" 
d="M558 708l-21 -103h-92l21 103h92zM384 708l-21 -103h-92l21 103h92zM567 266q-27 -127 -95 -202q-80 -86 -204 -86q-187 0 -187 188q0 45 12 100q27 128 104 201t191 73q93 0 141 -49t48 -138q0 -40 -10 -87zM481 266q7 31 7 59q0 62 -34 98q-31 33 -84 33
q-64 0 -116 -49q-56 -52 -75 -141q-8 -37 -8 -69q0 -64 30 -100t85 -36q69 0 122 56t73 149z" />
    <glyph glyph-name="otilde" unicode="&#xf0f5;" 
d="M584 716q-24 -56 -68 -86q-31 -21 -57 -21q-8 0 -34 6l-56 13q-13 3 -29 3q-29 0 -53 -41h-45q50 109 113 109q14 0 41 -5l54 -10q16 -3 41 -3q20 0 52 35h41zM567 266q-27 -127 -95 -202q-80 -86 -204 -86q-187 0 -187 188q0 45 12 100q27 128 104 201t191 73
q93 0 141 -49t48 -138q0 -40 -10 -87zM481 266q7 31 7 59q0 62 -34 98q-31 33 -84 33q-64 0 -116 -49q-56 -52 -75 -141q-8 -37 -8 -69q0 -64 30 -100t85 -36q69 0 122 56t73 149z" />
    <glyph glyph-name="uacute" unicode="&#xf0fa;" 
d="M569 740l-178 -148h-62l128 148h112zM594 525l-112 -525h-84l12 58q-40 -44 -78 -61q-42 -19 -109 -19q-135 0 -135 110q0 17 3 32l86 405h84l-82 -385q-2 -9 -2 -17q0 -30 22.5 -49.5t58.5 -19.5q63 0 117 46.5t68 111.5l67 313h84z" />
    <glyph glyph-name="ugrave" unicode="&#xf0f9;" 
d="M469 592h-61l-117 148h112zM594 525l-112 -525h-84l12 58q-40 -44 -78 -61q-42 -19 -109 -19q-135 0 -135 110q0 17 3 32l86 405h84l-82 -385q-2 -9 -2 -17q0 -30 22.5 -49.5t58.5 -19.5q63 0 117 46.5t68 111.5l67 313h84z" />
    <glyph glyph-name="ucircumflex" unicode="&#xf0fb;" 
d="M545 591h-64l-60 95l-99 -95h-64l128 150h95zM594 525l-112 -525h-84l12 58q-40 -44 -78 -61q-42 -19 -109 -19q-135 0 -135 110q0 17 3 32l86 405h84l-82 -385q-2 -9 -2 -17q0 -30 22.5 -49.5t58.5 -19.5q63 0 117 46.5t68 111.5l67 313h84z" />
    <glyph glyph-name="udieresis" unicode="&#xf0fc;" 
d="M558 708l-21 -103h-92l21 103h92zM384 708l-21 -103h-92l21 103h92zM594 525l-112 -525h-84l12 58q-40 -44 -78 -61q-42 -19 -109 -19q-135 0 -135 110q0 17 3 32l86 405h84l-82 -385q-2 -9 -2 -17q0 -30 22.5 -49.5t58.5 -19.5q63 0 117 46.5t68 111.5l67 313h84z" />
    <glyph glyph-name="uniF0B0" unicode="&#xf0b0;" horiz-adv-x="400" 
d="M287 410q-54 0 -88 33t-34 83q0 15 3 31q13 63 65.5 107t114.5 45q54 1 89 -33.5t35 -87.5q0 -70 -57 -124t-128 -54zM431 582q0 38 -25.5 62.5t-66.5 24.5q-42 0 -81 -31.5t-48 -72.5q-3 -15 -3 -28q0 -39 23.5 -63.5t62.5 -24.5q53 0 95.5 40.5t42.5 92.5z" />
    <glyph glyph-name="cent" unicode="&#xf0a2;" 
d="M584 347h-77q-8 53 -12 62q-10 27 -40 41l-196 -388q24 -10 47 -10q51 0 95.5 34.5t69.5 96.5h78q-22 -92 -98 -150q-72 -54 -157 -54q-34 0 -69 9l-55 -107q-19 -3 -37 0l61 118q-98 46 -98 172q0 39 10 84q28 130 107 205q84 79 209 79q4 0 14 -1.5t19 -1.5l47 91h41
l-55 -104q98 -27 98 -140q0 -16 -2 -36zM420 464q-8 5 -24 5q-68 0 -121 -52q-57 -57 -79 -160q-10 -45 -10 -71q0 -64 45 -108z" />
    <glyph glyph-name="sterling" unicode="&#xf0a3;" 
d="M618 496h-89q6 28 6 50q0 98 -115 98q-61 0 -105.5 -36t-56.5 -94q-2 -9 -2 -21q0 -45 30 -118h161l-12 -55h-140q3 -44 0 -59q-5 -25 -24 -57q-36 -59 -135 -142q74 38 138 38q32 0 83.5 -15t69.5 -15q39 0 94 33l22 -68q-70 -56 -148 -56q-48 0 -106 22.5t-92 22.5
q-50 0 -119 -38l-34 67q146 96 166 189q7 31 -4 78h-112l12 55h83q-30 63 -30 99q0 16 6 47q17 80 99 142t169 62q195 0 195 -157q0 -33 -10 -72z" />
    <glyph glyph-name="section" unicode="&#xf0a7;" 
d="M577 524h-84q11 30 11 55q0 73 -78 73q-43 0 -78 -26t-35 -68q0 -35 32 -57l125 -87q90 -63 90 -145q0 -16 -5 -41q-12 -57 -50 -100t-89 -55q28 -48 28 -85q0 -84 -73 -145q-69 -58 -155 -58q-73 0 -115 42q-38 39 -38 99q0 18 4 37q3 8 6 23h86q-1 -5 -4 -14
q-3 -14 -3 -27q0 -79 87 -79q43 0 77.5 30t34.5 73q0 41 -23 58l-163 123q-59 44 -59 122q0 21 5 42q12 56 44.5 90.5t97.5 61.5q-31 38 -31 75q0 12 3 25q14 67 78.5 115t138.5 48q71 0 109.5 -33.5t38.5 -95.5q0 -34 -13 -76zM469 211q3 12 3 23q0 48 -55 94l-126 106
q-98 -60 -98 -121q0 -54 76 -117l108 -90q80 48 92 105z" />
    <glyph glyph-name="uniF0B6" unicode="&#xf0b6;" horiz-adv-x="537" 
d="M677 729l-14 -65h-58l-179 -842h-65l179 842h-81l-179 -842h-65l93 437q-75 0 -120 52q-43 49 -43 125q0 27 6 55q22 102 104.5 170t184.5 68h237z" />
    <glyph glyph-name="uniF0DF" unicode="&#xf0df;" horiz-adv-x="611" 
d="M649 541q-23 -108 -121 -135q46 -29 60 -43q32 -34 32 -90q0 -24 -6 -54q-24 -112 -107 -179q-74 -60 -159 -60q-19 0 -54 4l16 77q24 -4 39 -4q61 0 110.5 43t63.5 107q5 23 5 43q0 100 -117 100q-17 0 -36 -1l18 83q66 1 116 33q57 37 57 99q0 37 -26.5 60.5
t-70.5 23.5q-50 0 -89.5 -29t-48.5 -69l-117 -550h-88l121 569q11 53 81 104q78 57 166 57q76 0 118 -39t42 -105q0 -21 -5 -45z" />
    <glyph glyph-name="registered" unicode="&#xf0ae;" horiz-adv-x="737" 
d="M828 357q-34 -157 -169.5 -268.5t-292.5 -111.5q-138 0 -225 85t-87 215q0 38 8 78q34 159 163 270q135 116 304 116q136 0 222 -86.5t86 -216.5q0 -40 -9 -81zM782 356q8 37 8 73q0 115 -73 188q-76 77 -205 77q-158 0 -284 -125t-126 -283q0 -114 76.5 -188.5
t196.5 -74.5q139 0 258.5 98t148.5 235zM664 458q-12 -57 -53 -85q-36 -24 -106 -31l86 -196h-62l-81 197h-95l-42 -197h-52l91 427h202q115 0 115 -87q0 -13 -3 -28zM614 476q0 59 -83 59h-137l-32 -151h142q42 0 76 25.5t34 66.5z" />
    <glyph glyph-name="copyright" unicode="&#xf0a9;" horiz-adv-x="737" 
d="M827 357q-34 -158 -168 -269t-294 -111q-137 0 -224 86t-87 215q0 39 9 79q33 156 164 268q135 116 300 116q136 0 222.5 -86t86.5 -217q0 -40 -9 -81zM781 358q8 37 8 73q0 115 -74 188q-77 76 -205 76q-139 0 -259 -106q-114 -101 -141 -232q-7 -35 -7 -69
q0 -115 76 -190t196 -75q140 0 258.5 98t147.5 237zM658 438h-55q-8 99 -106 99q-67 0 -120 -49t-69 -124q-5 -23 -5 -45q0 -59 33.5 -94.5t89.5 -35.5q104 0 146 101h54q-22 -66 -83.5 -107t-132.5 -41q-74 0 -119 46.5t-45 121.5q0 26 6 53q20 96 90 157.5t160 61.5
q151 0 156 -144z" />
    <glyph glyph-name="acute" unicode="&#xf0b4;" horiz-adv-x="333" 
d="M458 740l-178 -148h-62l128 148h112z" />
    <glyph glyph-name="dieresis" unicode="&#xf0a8;" horiz-adv-x="333" 
d="M446 708l-21 -103h-92l21 103h92zM272 708l-21 -103h-92l21 103h92z" />
    <glyph glyph-name="uniF0C6" unicode="&#xf0c6;" horiz-adv-x="1000" 
d="M1087 729l-18 -83h-373l-49 -230h354l-17 -83h-354l-53 -250h391l-18 -83h-483l45 213h-268l-131 -213h-102l453 729h623zM604 646h-100l-208 -350h234z" />
    <glyph glyph-name="Oslash" unicode="&#xf0d8;" horiz-adv-x="778" 
d="M865 712l-82 -74q49 -86 49 -177q0 -46 -13 -108q-34 -158 -142 -261q-119 -113 -288 -113q-76 0 -119 19.5t-105 79.5l-108 -96l-25 26l108 100q-36 81 -36 146q0 40 13 102q36 169 152.5 276.5t264.5 107.5q74 0 116 -11q61 -16 110 -62l83 74zM686 600q-61 57 -156 57
q-119 0 -205 -83t-116 -224q-8 -39 -8 -68q0 -41 16 -107zM725 358q11 53 11 95q0 66 -27 117l-476 -430q44 -46 81.5 -62.5t94.5 -16.5q112 0 200 83t116 214z" />
    <glyph glyph-name="plusminus" unicode="&#xf0b1;" horiz-adv-x="584" 
d="M621 411l-15 -70h-207l-44 -207h-70l44 207h-207l15 70h207l44 207h70l-44 -207h207zM560 76l-16 -76h-504l16 76h504z" />
    <glyph glyph-name="uniF0A5" unicode="&#xf0a5;" 
d="M696 710l-279 -355h151l-11 -52h-178l-16 -75h178l-11 -53h-177l-37 -175h-76l37 175h-177l11 53h178l16 75h-178l11 52h150l-126 355h74l120 -336l265 336h75z" />
    <glyph glyph-name="mu" unicode="&#xf0b5;" 
d="M594 525l-112 -526h-84l12 58q-63 -81 -180 -81q-60 0 -83 14l-45 -209h-84l159 744h84l-77 -361q-5 -21 -5 -38q0 -71 89 -71q52 0 101 38q58 45 74 120l67 312h84z" />
    <glyph glyph-name="uniF0AA" unicode="&#xf0aa;" horiz-adv-x="370" 
d="M440 675l-43 -205q-5 -25 19 -25q8 0 13 1l-9 -35q-30 -8 -39 -8q-38 0 -41 46q-64 -46 -119 -46q-81 0 -81 69q0 12 3 26q17 80 127 94l81 10q12 1 21 13q5 6 12 41q8 39 -70 39q-66 0 -79 -57h-50q30 102 147 102q51 0 82.5 -17.5t25.5 -47.5zM395 353l-11 -52h-277
l11 52h277zM364 568l-126 -23q-20 -4 -33 -21.5t-13 -37.5q0 -40 47 -40q40 0 74 20.5t40 48.5q11 37 11 53z" />
    <glyph glyph-name="uniF0BA" unicode="&#xf0ba;" horiz-adv-x="365" 
d="M445 569q-35 -164 -182 -164q-107 0 -107 111q0 26 6 56q17 79 64 124t111 45q115 0 115 -109q0 -28 -7 -63zM389 353l-11 -52h-264l11 52h264zM395 578q4 19 4 35q0 78 -77 78q-83 0 -109 -123q-4 -18 -4 -34q0 -80 71 -80q38 0 70.5 34.5t44.5 89.5z" />
    <glyph glyph-name="ae" unicode="&#xf0e6;" horiz-adv-x="889" 
d="M912 314l-18 -84h-381q-6 -20 -6 -43q0 -53 27 -92q31 -44 80 -44q120 0 180 119h82q-75 -190 -280 -190q-58 0 -94 22q-39 24 -67 82q-116 -103 -232 -103q-68 0 -106 31.5t-38 87.5q0 18 4 38q16 77 80 124q52 38 218 61q67 9 83 22q13 10 21 50q2 9 2 17q0 57 -96 57
q-131 0 -153 -104h-85q37 175 253 175q140 0 153 -79q59 45 100.5 62t93.5 17q81 0 133 -48.5t52 -126.5q0 -25 -6 -51zM819 308q6 30 6 54q0 107 -117 107q-133 0 -181 -161h292zM439 271q-58 -29 -160 -33q-39 -1 -77.5 -32t-46.5 -68q-3 -12 -3 -22q0 -59 86 -59
q58 0 113 38q59 40 71 97q7 32 17 79z" />
    <glyph glyph-name="oslash" unicode="&#xf0f8;" horiz-adv-x="611" 
d="M638 519l-86 -81q17 -44 17 -86q0 -31 -16 -109q-25 -117 -105 -190t-185 -73q-90 0 -151 57l-71 -64l-23 29l71 67q-18 53 -18 100q0 32 14 98q28 131 105.5 203t190.5 72q90 0 155 -66l77 72zM460 407q-26 51 -100 51q-66 0 -119 -54.5t-71 -138.5q-10 -47 1 -122z
M474 369l-287 -263q32 -42 91 -42q64 0 118 53t70 129q15 71 8 123z" />
    <glyph glyph-name="questiondown" unicode="&#xf0bf;" 
d="M476 524l-22 -104h-92l22 104h92zM532 20q-22 -116 -97 -177q-70 -56 -175 -56q-81 0 -127.5 40t-46.5 107q0 22 5 45q17 81 79 130l117 93q34 27 56 127h91q-13 -111 -69 -157l-131 -107q-21 -17 -38 -53t-17 -63q0 -39 30.5 -63.5t79.5 -24.5t89 31q52 42 67 128h87z
" />
    <glyph glyph-name="exclamdown" unicode="&#xf0a1;" horiz-adv-x="333" 
d="M317 525l-23 -104h-84l23 104h84zM258 350l-20 -197l-78 -367h-84l78 367l62 197h42z" />
    <glyph glyph-name="logicalnot" unicode="&#xf0ac;" horiz-adv-x="584" 
d="M619 352l-58 -270h-76l42 194h-428l16 76h504z" />
    <glyph glyph-name="guillemotleft" unicode="&#xf0ab;" 
d="M549 438l-18 -84l-121 -82l86 -82l-17 -84l-129 123l18 87zM348 438l-18 -84l-125 -82l90 -82l-17 -84l-131 123l18 87z" />
    <glyph glyph-name="guillemotright" unicode="&#xf0bb;" 
d="M519 316l-18 -87l-183 -123l17 84l126 82l-91 82l18 84zM318 316l-18 -87l-179 -123l17 84l125 82l-90 82l18 84z" />
    <glyph glyph-name="uniF0A0" unicode="&#xf0a0;" horiz-adv-x="56" 
 />
    <glyph glyph-name="Agrave" unicode="&#xf0c0;" horiz-adv-x="667" 
d="M566 791h-61l-116 148h112zM653 0h-105l-28 218h-279l-124 -218h-100l420 729h115zM509 296l-39 321l-187 -321h226z" />
    <glyph glyph-name="uniF0C3" unicode="&#xf0c3;" horiz-adv-x="667" 
d="M681 915q-24 -57 -67 -86q-31 -21 -57 -21q-10 0 -35 6l-55 13q-13 3 -30 3q-30 0 -52 -41h-45q48 109 112 109q14 0 41 -5l55 -10q17 -3 40 -3q22 0 52 35h41zM653 0h-105l-28 218h-279l-124 -218h-100l420 729h115zM509 296l-39 321l-187 -321h226z" />
    <glyph glyph-name="Otilde" unicode="&#xf0d5;" horiz-adv-x="778" 
d="M737 915q-24 -57 -67 -86q-31 -21 -57 -21q-10 0 -35 6l-55 13q-13 3 -30 3q-30 0 -52 -41h-45q48 109 112 109q14 0 41 -5l55 -10q17 -3 40 -3q22 0 52 35h41zM817 353q-35 -168 -155 -271.5t-280 -103.5q-130 0 -204.5 75.5t-74.5 203.5q0 49 11 102q35 164 146 269
q119 112 285 112q140 0 215 -81q68 -75 68 -202q0 -50 -11 -104zM724 362q9 42 9 81q0 97 -52.5 155t-148.5 58q-126 0 -214 -87q-81 -80 -109 -210q-10 -46 -10 -87q0 -98 54 -154.5t150 -56.5q126 0 214 91q80 82 107 210z" />
    <glyph glyph-name="quoteleft" unicode="&#xf060;" horiz-adv-x="333" 
d="M357 592h-61l-117 148h112z" />
    <glyph glyph-name="uniF027" unicode="&#xf027;" horiz-adv-x="191" 
d="M292 708l-24 -114l-55 -132h-39l1 134l23 112h94z" />
    <glyph glyph-name="divide" unicode="&#xf0f7;" horiz-adv-x="584" 
d="M445 474l-22 -104h-104l22 104h104zM591 267l-15 -70h-484l15 70h484zM364 94l-22 -104h-104l22 104h104z" />
    <glyph glyph-name="ydieresis" unicode="&#xf0ff;" horiz-adv-x="500" 
d="M530 708l-21 -103h-92l21 103h92zM356 708l-21 -103h-92l21 103h92zM590 525l-367 -631q-66 -113 -166 -113q-31 0 -49 12l17 80q29 -12 52 -12q30 0 60 41q3 5 53 90l-58 533h89l48 -396l231 396h90z" />
    <glyph glyph-name="currency" unicode="&#xf0a4;" 
d="M594 490l-70 -57q12 -31 12 -62q0 -14 -3 -27q-10 -48 -56 -102l46 -57l-66 -54l-44 54q-59 -34 -104 -34q-42 0 -90 27l-63 -51l-45 59l59 50q-15 30 -15 61q0 45 21 87q15 29 42 54l-45 59l68 56l44 -57q60 26 106 26q48 0 89 -27l67 54zM448 361q0 35 -22 56.5
t-62 21.5q-53 0 -90 -37.5t-37 -89.5q0 -35 22.5 -56.5t61.5 -21.5q50 0 88.5 38.5t38.5 88.5z" />
    <glyph glyph-name="uniF0B7" unicode="&#xf0b7;" horiz-adv-x="278" 
d="M218 318q-22 0 -36 14t-14 36q0 28 23.5 51t52.5 23q22 0 36 -14t14 -36q0 -28 -23.5 -51t-52.5 -23z" />
    <glyph glyph-name="Acircumflex" unicode="&#xf0c2;" horiz-adv-x="667" 
d="M642 790h-64l-60 95l-99 -95h-64l128 150h95zM653 0h-105l-28 218h-279l-124 -218h-100l420 729h115zM509 296l-39 321l-187 -321h226z" />
    <glyph glyph-name="Ecircumflex" unicode="&#xf0ca;" horiz-adv-x="667" 
d="M663 790h-64l-60 95l-99 -95h-64l128 150h95zM751 729l-18 -83h-412l-49 -230h396l-17 -83h-396l-53 -250h429l-18 -83h-523l155 729h506z" />
    <glyph glyph-name="Aacute" unicode="&#xf0c1;" horiz-adv-x="667" 
d="M668 939l-179 -148h-62l129 148h112zM653 0h-105l-28 218h-279l-124 -218h-100l420 729h115zM509 296l-39 321l-187 -321h226z" />
    <glyph glyph-name="Edieresis" unicode="&#xf0cb;" horiz-adv-x="667" 
d="M677 907l-22 -103h-92l22 103h92zM503 907l-22 -103h-92l22 103h92zM751 729l-18 -83h-412l-49 -230h396l-17 -83h-396l-53 -250h429l-18 -83h-523l155 729h506z" />
    <glyph glyph-name="Egrave" unicode="&#xf0c8;" horiz-adv-x="667" 
d="M587 791h-61l-116 148h112zM751 729l-18 -83h-412l-49 -230h396l-17 -83h-396l-53 -250h429l-18 -83h-523l155 729h506z" />
    <glyph glyph-name="Iacute" unicode="&#xf0cd;" horiz-adv-x="278" 
d="M479 939l-179 -148h-62l129 148h112zM349 729l-155 -729h-94l155 729h94z" />
    <glyph glyph-name="uniF0CE" unicode="&#xf0ce;" horiz-adv-x="278" 
d="M453 790h-64l-60 95l-99 -95h-64l128 150h95zM349 729l-155 -729h-94l155 729h94z" />
    <glyph glyph-name="uniF0CF" unicode="&#xf0cf;" horiz-adv-x="278" 
d="M469 907l-22 -103h-92l22 103h92zM295 907l-22 -103h-92l22 103h92zM349 729l-155 -729h-94l155 729h94z" />
    <glyph glyph-name="Igrave" unicode="&#xf0cc;" horiz-adv-x="278" 
d="M379 791h-61l-116 148h112zM349 729l-155 -729h-94l155 729h94z" />
    <glyph glyph-name="uniF0D3" unicode="&#xf0d3;" horiz-adv-x="778" 
d="M724 939l-179 -148h-62l129 148h112zM817 353q-35 -168 -155 -271.5t-280 -103.5q-130 0 -204.5 75.5t-74.5 203.5q0 49 11 102q35 164 146 269q119 112 285 112q140 0 215 -81q68 -75 68 -202q0 -50 -11 -104zM724 362q9 42 9 81q0 97 -52.5 155t-148.5 58
q-126 0 -214 -87q-81 -80 -109 -210q-10 -46 -10 -87q0 -98 54 -154.5t150 -56.5q126 0 214 91q80 82 107 210z" />
    <glyph glyph-name="Ocircumflex" unicode="&#xf0d4;" horiz-adv-x="778" 
d="M698 790h-64l-60 95l-99 -95h-64l128 150h95zM817 353q-35 -168 -155 -271.5t-280 -103.5q-130 0 -204.5 75.5t-74.5 203.5q0 49 11 102q35 164 146 269q119 112 285 112q140 0 215 -81q68 -75 68 -202q0 -50 -11 -104zM724 362q9 42 9 81q0 97 -52.5 155t-148.5 58
q-126 0 -214 -87q-81 -80 -109 -210q-10 -46 -10 -87q0 -98 54 -154.5t150 -56.5q126 0 214 91q80 82 107 210z" />
    <glyph glyph-name="uniF0D2" unicode="&#xf0d2;" horiz-adv-x="778" 
d="M622 791h-61l-116 148h112zM817 353q-35 -168 -155 -271.5t-280 -103.5q-130 0 -204.5 75.5t-74.5 203.5q0 49 11 102q35 164 146 269q119 112 285 112q140 0 215 -81q68 -75 68 -202q0 -50 -11 -104zM724 362q9 42 9 81q0 97 -52.5 155t-148.5 58q-126 0 -214 -87
q-81 -80 -109 -210q-10 -46 -10 -87q0 -98 54 -154.5t150 -56.5q126 0 214 91q80 82 107 210z" />
    <glyph glyph-name="uniF0DA" unicode="&#xf0da;" horiz-adv-x="722" 
d="M696 939l-179 -148h-62l129 148h112zM800 729l-114 -534q-17 -78 -91 -140q-94 -77 -233 -77q-124 0 -188 61q-52 49 -52 121q0 18 4 35l114 534h94l-113 -531q-2 -10 -2 -21q0 -49 44.5 -85t115.5 -36q75 0 138.5 42t77.5 107l111 524h94z" />
    <glyph glyph-name="Ucircumflex" unicode="&#xf0db;" horiz-adv-x="722" 
d="M670 790h-64l-60 95l-99 -95h-64l128 150h95zM800 729l-114 -534q-17 -78 -91 -140q-94 -77 -233 -77q-124 0 -188 61q-52 49 -52 121q0 18 4 35l114 534h94l-113 -531q-2 -10 -2 -21q0 -49 44.5 -85t115.5 -36q75 0 138.5 42t77.5 107l111 524h94z" />
    <glyph glyph-name="uniF0D9" unicode="&#xf0d9;" horiz-adv-x="722" 
d="M594 791h-61l-116 148h112zM800 729l-114 -534q-17 -78 -91 -140q-94 -77 -233 -77q-124 0 -188 61q-52 49 -52 121q0 18 4 35l114 534h94l-113 -531q-2 -10 -2 -21q0 -49 44.5 -85t115.5 -36q75 0 138.5 42t77.5 107l111 524h94z" />
    <glyph glyph-name="dotlessi" unicode="&#xf090;" horiz-adv-x="1000" 
 />
    <glyph glyph-name="circumflex" unicode="&#xf093;" horiz-adv-x="333" 
d="M449 707l-8 -39q-30 -17 -44 -36q-18 -24 -27 -68h48l-22 -105h-92l24 115q9 45 38 81q35 45 83 52zM291 707l-8 -39q-30 -17 -44 -36q-18 -24 -27 -68h48l-22 -105h-92l24 115q9 45 38 81q35 45 83 52z" />
    <glyph glyph-name="tilde" unicode="&#xf094;" horiz-adv-x="333" 
d="M452 708l-24 -115q-9 -41 -38 -74q-34 -38 -81 -44l8 39q30 8 44 26t24 65h-48l21 103h94zM293 708l-24 -115q-9 -41 -38 -74q-34 -38 -81 -44l8 39q30 8 44 26t24 65h-48l21 103h94z" />
    <glyph glyph-name="macron" unicode="&#xf0af;" horiz-adv-x="584" 
d="M732 878l-16 -74h-506l16 74h506z" />
    <glyph glyph-name="breve" unicode="&#xf096;" 
d="M628 314l-16 -74h-566l16 74h566z" />
    <glyph glyph-name="dotaccent" unicode="&#xf097;" horiz-adv-x="1000" 
d="M1069 314l-16 -74h-1011l16 74h1011z" />
    <glyph glyph-name="ring" unicode="&#xf09a;" horiz-adv-x="500" 
d="M547 740l-128 -150h-95l-64 150h64l59 -95l100 95h64zM517 378h-83q2 11 2 20q0 64 -101 64q-42 0 -82 -24q-46 -27 -46 -67t61 -56l129 -33q97 -25 97 -104q0 -16 -4 -34q-16 -77 -88 -123q-67 -43 -159 -43q-99 0 -142 32q-39 30 -39 92q0 23 5 53h81q-2 -12 -2 -23
q0 -42 35 -64q30 -20 76 -20q55 0 97 21q52 27 52 77q0 46 -53 59l-125 31q-103 26 -103 105q0 19 5 43q15 71 79.5 113.5t156.5 42.5q155 0 155 -123q0 -18 -4 -39z" />
    <glyph glyph-name="uniF0B8" unicode="&#xf0b8;" horiz-adv-x="333" 
d="M263 -117q-22 -98 -150 -98q-29 0 -53 9q-30 13 -59 26l32 42q53 -34 90 -34q24 0 43 14.5t19 36.5q0 32 -30 32q-9 0 -27 -10l-10 9l47 90h42l-30 -55q17 2 26 2q62 0 62 -49q0 -7 -2 -15z" />
    <glyph glyph-name="hungarumlaut" unicode="&#xf09d;" horiz-adv-x="1000" 
 />
    <glyph glyph-name="ogonek" unicode="&#xf09e;" horiz-adv-x="1000" 
 />
    <glyph glyph-name="caron" unicode="&#xf09f;" horiz-adv-x="667" 
d="M656 907l-22 -103h-92l22 103h92zM482 907l-22 -103h-92l22 103h92zM816 729l-369 -443l-61 -286h-94l61 286l-185 443h115l136 -354l282 354h115z" />
    <glyph glyph-name="brokenbar" unicode="&#xf0a6;" horiz-adv-x="260" 
d="M319 729l-80 -377h-60l80 377h60zM198 162l-80 -377h-60l80 377h60z" />
    <glyph glyph-name="uniF0D0" unicode="&#xf0d0;" horiz-adv-x="722" 
d="M746 371q-36 -166 -146 -275q-98 -96 -193 -96h-318l72 340h-87l16 73h87l67 316h296q84 0 145 -57q73 -69 73 -194q0 -50 -12 -107zM652 371q11 53 11 98q0 86 -41 131.5t-115 45.5h-187l-49 -233h133l-16 -73h-133l-54 -257h212q84 0 149 81q62 78 90 207z" />
    <glyph glyph-name="uniF0F0" unicode="&#xf0f0;" horiz-adv-x="494" 
d="M565 258q-27 -127 -98 -200q-79 -81 -197 -81q-190 0 -190 191q0 42 11 92q30 143 119 216q77 64 182 64q-18 36 -43 68l-127 -47l-19 33l118 46q-42 42 -85 42l42 46q57 0 126 -56l125 49l18 -39l-110 -41q60 -60 96 -138q40 -86 40 -173q0 -37 -8 -72zM479 256
q6 29 6 60q0 140 -120 140q-146 0 -187 -194q-7 -33 -7 -63q0 -62 29.5 -100t86.5 -38q72 0 128 64q48 55 64 131z" />
    <glyph glyph-name="uniF0DD" unicode="&#xf0dd;" horiz-adv-x="667" 
d="M668 944l-179 -148h-62l129 148h112zM816 729l-369 -443l-61 -286h-94l61 286l-185 443h115l136 -354l282 354h115z" />
    <glyph glyph-name="yacute" unicode="&#xf0fd;" horiz-adv-x="500" 
d="M541 740l-178 -148h-62l128 148h112zM590 525l-367 -631q-66 -113 -166 -113q-31 0 -49 12l17 80q29 -12 52 -12q30 0 60 41q3 5 53 90l-58 533h89l48 -396l231 396h90z" />
    <glyph glyph-name="uniF0DE" unicode="&#xf0de;" horiz-adv-x="667" 
d="M701 396q-21 -98 -93 -158q-67 -55 -145 -55h-239l-39 -183h-94l155 729h94l-27 -126h224q83 0 128 -44q42 -41 42 -110q0 -26 -6 -53zM606 396q3 13 3 26q0 42 -25.5 70t-64.5 28h-223l-54 -254h235q35 0 73 33q44 39 56 97z" />
    <glyph glyph-name="thorn" unicode="&#xf0fe;" 
d="M578 254q-26 -122 -105 -199t-180 -77q-102 0 -143 79l-59 -276h-84l202 948h83l-57 -267q46 43 83 60.5t89 17.5q85 0 133 -52t48 -145q0 -42 -10 -89zM481 249q9 42 9 78q0 134 -109 134q-68 0 -117.5 -51t-69.5 -144q-8 -37 -8 -71q0 -132 105 -132q74 0 125 52
q47 49 65 134z" />
    <glyph glyph-name="minus" unicode="&#xf02d;" horiz-adv-x="333" 
d="M351 313l-16 -73h-238l16 73h238z" />
    <glyph glyph-name="uniF0D7" unicode="&#xf0d7;" horiz-adv-x="584" 
d="M623 424l-233 -192l152 -192l-60 -49l-151 192l-233 -192l-38 49l232 192l-151 192l60 49l151 -192l233 192z" />
    <glyph glyph-name="uniF0B9" unicode="&#xf0b9;" horiz-adv-x="333" 
d="M377 709l-91 -425h-55l64 300h-105l9 41q67 9 87 20q24 14 53 64h38z" />
    <glyph glyph-name="uniF0B2" unicode="&#xf0b2;" horiz-adv-x="333" 
d="M446 582q-17 -77 -106 -118l-96 -44q-81 -37 -99 -86h245l-11 -50h-307q31 115 119 158l121 60q67 33 77 80q2 9 2 18q0 61 -81 61q-86 0 -113 -99h-55q34 147 193 147q45 0 77 -23q37 -27 37 -75q0 -14 -3 -29z" />
    <glyph glyph-name="uniF0B3" unicode="&#xf0b3;" horiz-adv-x="333" 
d="M362 504q52 -27 52 -73q0 -13 -3 -29q-12 -58 -64.5 -95t-123.5 -37q-52 0 -85 23q-38 28 -38 79q0 17 4 36h54q-2 -12 -2 -22q0 -68 67 -68q111 0 129 85q2 11 2 21q0 55 -84 55q-13 0 -28 -1l10 47q59 0 83 10q33 15 43 62q2 7 2 14q0 50 -76 50q-80 0 -103 -90h-53
q33 136 171 138q56 1 89 -24t33 -67q0 -72 -79 -114z" />
    <glyph glyph-name="uniF0BD" unicode="&#xf0bd;" horiz-adv-x="834" 
d="M869 298q-16 -76 -106 -118l-95 -44q-81 -38 -99 -86h245l-11 -50h-307q30 113 119 158l120 60q67 33 77 80q2 10 2 18q0 61 -80 61q-86 0 -113 -99h-55q34 147 192 147q45 0 77 -23q37 -27 37 -75q0 -14 -3 -29zM777 707l-609 -729h-55l608 730zM341 709l-91 -425h-55
l64 300h-105l9 41q67 9 87 20q24 14 53 64h38z" />
    <glyph glyph-name="onequarter" unicode="&#xf0bc;" horiz-adv-x="834" 
d="M838 150l-11 -50h-67l-21 -100h-55l21 100h-198l12 56l266 269h44l-58 -275h67zM809 707l-609 -729h-55l608 730zM341 709l-91 -425h-55l64 300h-105l9 41q67 9 87 20q24 14 53 64h38zM756 341l-186 -191h146z" />
    <glyph glyph-name="threequarters" unicode="&#xf0be;" horiz-adv-x="834" 
d="M834 150l-11 -50h-67l-21 -100h-55l21 100h-198l12 56l266 269h44l-58 -275h67zM865 707l-609 -729h-55l608 730zM366 504q52 -27 52 -73q0 -13 -3 -29q-12 -58 -64.5 -95t-123.5 -37q-52 0 -85 23q-38 28 -38 79q0 17 4 36h54q-2 -12 -2 -22q0 -68 67 -68q111 0 129 85
q2 11 2 21q0 55 -84 55q-13 0 -28 -1l10 47q59 0 83 10q33 15 43 62q2 7 2 14q0 50 -76 50q-80 0 -103 -90h-53q33 136 171 138q56 1 89 -24t33 -67q0 -72 -79 -114zM752 341l-186 -191h146z" />
    <glyph glyph-name="quoteright" unicode="&#xf100;" horiz-adv-x="191" 
d="M292 708l-24 -114l-55 -132h-39l1 134l23 112h94z" />
    <glyph glyph-name="nonbreakingspace" unicode="&#xf101;" horiz-adv-x="56" 
 />
    <glyph glyph-name="yen" unicode="&#xf102;" 
d="M696 710l-279 -355h151l-11 -52h-178l-16 -75h178l-11 -53h-177l-37 -175h-76l37 175h-177l11 53h178l16 75h-178l11 52h150l-126 355h74l120 -336l265 336h75z" />
    <glyph glyph-name="ordfeminine" unicode="&#xf103;" horiz-adv-x="370" 
d="M440 675l-43 -205q-5 -25 19 -25q8 0 13 1l-9 -35q-30 -8 -39 -8q-38 0 -41 46q-64 -46 -119 -46q-81 0 -81 69q0 12 3 26q17 80 127 94l81 10q12 1 21 13q5 6 12 41q8 39 -70 39q-66 0 -79 -57h-50q30 102 147 102q51 0 82.5 -17.5t25.5 -47.5zM395 353l-11 -52h-277
l11 52h277zM364 568l-126 -23q-20 -4 -33 -21.5t-13 -37.5q0 -40 47 -40q40 0 74 20.5t40 48.5q11 37 11 53z" />
    <glyph glyph-name="hyphen" unicode="&#xf104;" horiz-adv-x="584" 
d="M602 270l-15 -74h-506l15 74h506z" />
    <glyph glyph-name="degree" unicode="&#xf105;" horiz-adv-x="400" 
d="M287 410q-54 0 -88 33t-34 83q0 15 3 31q13 63 65.5 107t114.5 45q54 1 89 -33.5t35 -87.5q0 -70 -57 -124t-128 -54zM431 582q0 38 -25.5 62.5t-66.5 24.5q-42 0 -81 -31.5t-48 -72.5q-3 -15 -3 -28q0 -39 23.5 -63.5t62.5 -24.5q53 0 95.5 40.5t42.5 92.5z" />
    <glyph glyph-name="twosuperior" unicode="&#xf106;" horiz-adv-x="333" 
d="M446 582q-17 -77 -106 -118l-96 -44q-81 -37 -99 -86h245l-11 -50h-307q31 115 119 158l121 60q67 33 77 80q2 9 2 18q0 61 -81 61q-86 0 -113 -99h-55q34 147 193 147q45 0 77 -23q37 -27 37 -75q0 -14 -3 -29z" />
    <glyph glyph-name="threesuperior" unicode="&#xf107;" horiz-adv-x="333" 
d="M362 504q52 -27 52 -73q0 -13 -3 -29q-12 -58 -64.5 -95t-123.5 -37q-52 0 -85 23q-38 28 -38 79q0 17 4 36h54q-2 -12 -2 -22q0 -68 67 -68q111 0 129 85q2 11 2 21q0 55 -84 55q-13 0 -28 -1l10 47q59 0 83 10q33 15 43 62q2 7 2 14q0 50 -76 50q-80 0 -103 -90h-53
q33 136 171 138q56 1 89 -24t33 -67q0 -72 -79 -114z" />
    <glyph glyph-name="paragraph" unicode="&#xf108;" horiz-adv-x="537" 
d="M677 729l-14 -65h-58l-179 -842h-65l179 842h-81l-179 -842h-65l93 437q-75 0 -120 52q-43 49 -43 125q0 27 6 55q22 102 104.5 170t184.5 68h237z" />
    <glyph glyph-name="periodcentered" unicode="&#xf109;" horiz-adv-x="278" 
d="M218 318q-22 0 -36 14t-14 36q0 28 23.5 51t52.5 23q22 0 36 -14t14 -36q0 -28 -23.5 -51t-52.5 -23z" />
    <glyph glyph-name="cedilla" unicode="&#xf10a;" horiz-adv-x="333" 
d="M263 -117q-22 -98 -150 -98q-29 0 -53 9q-30 13 -59 26l32 42q53 -34 90 -34q24 0 43 14.5t19 36.5q0 32 -30 32q-9 0 -27 -10l-10 9l47 90h42l-30 -55q17 2 26 2q62 0 62 -49q0 -7 -2 -15z" />
    <glyph glyph-name="onesuperior" unicode="&#xf10b;" horiz-adv-x="333" 
d="M377 709l-91 -425h-55l64 300h-105l9 41q67 9 87 20q24 14 53 64h38z" />
    <glyph glyph-name="ordmasculine" unicode="&#xf10c;" horiz-adv-x="365" 
d="M445 569q-35 -164 -182 -164q-107 0 -107 111q0 26 6 56q17 79 64 124t111 45q115 0 115 -109q0 -28 -7 -63zM389 353l-11 -52h-264l11 52h264zM395 578q4 19 4 35q0 78 -77 78q-83 0 -109 -123q-4 -18 -4 -34q0 -80 71 -80q38 0 70.5 34.5t44.5 89.5z" />
    <glyph glyph-name="onehalf" unicode="&#xf10d;" horiz-adv-x="834" 
d="M869 298q-16 -76 -106 -118l-95 -44q-81 -38 -99 -86h245l-11 -50h-307q30 113 119 158l120 60q67 33 77 80q2 10 2 18q0 61 -80 61q-86 0 -113 -99h-55q34 147 192 147q45 0 77 -23q37 -27 37 -75q0 -14 -3 -29zM777 707l-609 -729h-55l608 730zM341 709l-91 -425h-55
l64 300h-105l9 41q67 9 87 20q24 14 53 64h38z" />
    <glyph glyph-name="Atilde" unicode="&#xf10e;" horiz-adv-x="667" 
d="M681 915q-24 -57 -67 -86q-31 -21 -57 -21q-10 0 -35 6l-55 13q-13 3 -30 3q-30 0 -52 -41h-45q48 109 112 109q14 0 41 -5l55 -10q17 -3 40 -3q22 0 52 35h41zM653 0h-105l-28 218h-279l-124 -218h-100l420 729h115zM509 296l-39 321l-187 -321h226z" />
    <glyph glyph-name="Adieresis" unicode="&#xf10f;" horiz-adv-x="667" 
d="M656 907l-22 -103h-92l22 103h92zM482 907l-22 -103h-92l22 103h92zM653 0h-105l-28 218h-279l-124 -218h-100l420 729h115zM509 296l-39 321l-187 -321h226z" />
    <glyph glyph-name="Aring" unicode="&#xf110;" horiz-adv-x="667" 
d="M497 765q-31 0 -51.5 20t-20.5 50q0 40 34 72.5t75 32.5q31 0 51 -20t20 -50q0 -41 -33.5 -73t-74.5 -32zM653 0h-105l-28 218h-279l-124 -218h-100l420 729h115zM568 862q0 18 -12 30t-30 12q-24 0 -44 -19.5t-20 -42.5q0 -18 12 -29.5t30 -11.5q24 0 44 18.5t20 42.5z
M509 296l-39 321l-187 -321h226z" />
    <glyph glyph-name="AE" unicode="&#xf111;" horiz-adv-x="1000" 
d="M1087 729l-18 -83h-373l-49 -230h354l-17 -83h-354l-53 -250h391l-18 -83h-483l45 213h-268l-131 -213h-102l453 729h623zM604 646h-100l-208 -350h234z" />
    <glyph glyph-name="Eacute" unicode="&#xf112;" horiz-adv-x="667" 
d="M689 939l-179 -148h-62l129 148h112zM751 729l-18 -83h-412l-49 -230h396l-17 -83h-396l-53 -250h429l-18 -83h-523l155 729h506z" />
    <glyph glyph-name="Icircumflex" unicode="&#xf113;" horiz-adv-x="278" 
d="M453 790h-64l-60 95l-99 -95h-64l128 150h95zM349 729l-155 -729h-94l155 729h94z" />
    <glyph glyph-name="Idieresis" unicode="&#xf114;" horiz-adv-x="278" 
d="M469 907l-22 -103h-92l22 103h92zM295 907l-22 -103h-92l22 103h92zM349 729l-155 -729h-94l155 729h94z" />
    <glyph glyph-name="Eth" unicode="&#xf115;" horiz-adv-x="722" 
d="M746 371q-36 -166 -146 -275q-98 -96 -193 -96h-318l72 340h-87l16 73h87l67 316h296q84 0 145 -57q73 -69 73 -194q0 -50 -12 -107zM652 371q11 53 11 98q0 86 -41 131.5t-115 45.5h-187l-49 -233h133l-16 -73h-133l-54 -257h212q84 0 149 81q62 78 90 207z" />
    <glyph glyph-name="Ntilde" unicode="&#xf116;" horiz-adv-x="722" 
d="M715 915q-24 -57 -67 -86q-31 -21 -57 -21q-10 0 -35 6l-55 13q-13 3 -30 3q-30 0 -52 -41h-45q48 109 112 109q14 0 41 -5l55 -10q17 -3 40 -3q22 0 52 35h41zM801 729l-155 -729h-107l-245 582l-124 -582h-94l155 729h111l240 -589l125 589h94z" />
    <glyph glyph-name="Ograve" unicode="&#xf117;" horiz-adv-x="778" 
d="M622 791h-61l-116 148h112zM817 353q-35 -168 -155 -271.5t-280 -103.5q-130 0 -204.5 75.5t-74.5 203.5q0 49 11 102q35 164 146 269q119 112 285 112q140 0 215 -81q68 -75 68 -202q0 -50 -11 -104zM724 362q9 42 9 81q0 97 -52.5 155t-148.5 58q-126 0 -214 -87
q-81 -80 -109 -210q-10 -46 -10 -87q0 -98 54 -154.5t150 -56.5q126 0 214 91q80 82 107 210z" />
    <glyph glyph-name="Oacute" unicode="&#xf118;" horiz-adv-x="778" 
d="M724 939l-179 -148h-62l129 148h112zM817 353q-35 -168 -155 -271.5t-280 -103.5q-130 0 -204.5 75.5t-74.5 203.5q0 49 11 102q35 164 146 269q119 112 285 112q140 0 215 -81q68 -75 68 -202q0 -50 -11 -104zM724 362q9 42 9 81q0 97 -52.5 155t-148.5 58
q-126 0 -214 -87q-81 -80 -109 -210q-10 -46 -10 -87q0 -98 54 -154.5t150 -56.5q126 0 214 91q80 82 107 210z" />
    <glyph glyph-name="multiply" unicode="&#xf119;" horiz-adv-x="584" 
d="M623 424l-233 -192l152 -192l-60 -49l-151 192l-233 -192l-38 49l232 192l-151 192l60 49l151 -192l233 192z" />
    <glyph glyph-name="Ugrave" unicode="&#xf11a;" horiz-adv-x="722" 
d="M594 791h-61l-116 148h112zM800 729l-114 -534q-17 -78 -91 -140q-94 -77 -233 -77q-124 0 -188 61q-52 49 -52 121q0 18 4 35l114 534h94l-113 -531q-2 -10 -2 -21q0 -49 44.5 -85t115.5 -36q75 0 138.5 42t77.5 107l111 524h94z" />
    <glyph glyph-name="Uacute" unicode="&#xf11b;" horiz-adv-x="722" 
d="M696 939l-179 -148h-62l129 148h112zM800 729l-114 -534q-17 -78 -91 -140q-94 -77 -233 -77q-124 0 -188 61q-52 49 -52 121q0 18 4 35l114 534h94l-113 -531q-2 -10 -2 -21q0 -49 44.5 -85t115.5 -36q75 0 138.5 42t77.5 107l111 524h94z" />
    <glyph glyph-name="Udieresis" unicode="&#xf11c;" horiz-adv-x="722" 
d="M684 907l-22 -103h-92l22 103h92zM510 907l-22 -103h-92l22 103h92zM800 729l-114 -534q-17 -78 -91 -140q-94 -77 -233 -77q-124 0 -188 61q-52 49 -52 121q0 18 4 35l114 534h94l-113 -531q-2 -10 -2 -21q0 -49 44.5 -85t115.5 -36q75 0 138.5 42t77.5 107l111 524h94z
" />
    <glyph glyph-name="Yacute" unicode="&#xf11d;" horiz-adv-x="667" 
d="M668 944l-179 -148h-62l129 148h112zM816 729l-369 -443l-61 -286h-94l61 286l-185 443h115l136 -354l282 354h115z" />
    <glyph glyph-name="Thorn" unicode="&#xf11e;" horiz-adv-x="667" 
d="M701 396q-21 -98 -93 -158q-67 -55 -145 -55h-239l-39 -183h-94l155 729h94l-27 -126h224q83 0 128 -44q42 -41 42 -110q0 -26 -6 -53zM606 396q3 13 3 26q0 42 -25.5 70t-64.5 28h-223l-54 -254h235q35 0 73 33q44 39 56 97z" />
    <glyph glyph-name="germandbls" unicode="&#xf11f;" horiz-adv-x="611" 
d="M649 541q-23 -108 -121 -135q46 -29 60 -43q32 -34 32 -90q0 -24 -6 -54q-24 -112 -107 -179q-74 -60 -159 -60q-19 0 -54 4l16 77q24 -4 39 -4q61 0 110.5 43t63.5 107q5 23 5 43q0 100 -117 100q-17 0 -36 -1l18 83q66 1 116 33q57 37 57 99q0 37 -26.5 60.5
t-70.5 23.5q-50 0 -89.5 -29t-48.5 -69l-117 -550h-88l121 569q11 53 81 104q78 57 166 57q76 0 118 -39t42 -105q0 -21 -5 -45z" />
    <glyph glyph-name="agrave" unicode="&#xf120;" 
d="M469 592h-61l-117 148h112zM568 434l-75 -355q-2 -11 6.5 -20.5t20.5 -10.5q9 -1 26 2l-14 -64q-34 -9 -67 -9q-27 0 -46 24.5t-17 51.5q-107 -75 -192 -75q-68 0 -106 30.5t-38 85.5q0 18 4 38q29 136 197 158l152 20q36 5 47 57q10 44 8 51q-4 21 -39 34t-83 13
q-93 0 -130 -97h-76q10 78 79 126q65 46 156 46q82 0 135 -27t53 -67q0 -6 -1 -12zM443 255q-65 -17 -190 -35q-38 -7 -67 -36q-32 -31 -32 -68q0 -30 22 -48.5t58 -18.5q68 0 125.5 38t67.5 87z" />
    <glyph glyph-name="acircumflex" unicode="&#xf121;" 
d="M545 591h-64l-60 95l-99 -95h-64l128 150h95zM568 434l-75 -355q-2 -11 6.5 -20.5t20.5 -10.5q9 -1 26 2l-14 -64q-34 -9 -67 -9q-27 0 -46 24.5t-17 51.5q-107 -75 -192 -75q-68 0 -106 30.5t-38 85.5q0 18 4 38q29 136 197 158l152 20q36 5 47 57q10 44 8 51
q-4 21 -39 34t-83 13q-93 0 -130 -97h-76q10 78 79 126q65 46 156 46q82 0 135 -27t53 -67q0 -6 -1 -12zM443 255q-65 -17 -190 -35q-38 -7 -67 -36q-32 -31 -32 -68q0 -30 22 -48.5t58 -18.5q68 0 125.5 38t67.5 87z" />
    <glyph glyph-name="atilde" unicode="&#xf122;" 
d="M584 716q-24 -56 -68 -86q-31 -21 -57 -21q-8 0 -34 6l-56 13q-13 3 -29 3q-29 0 -53 -41h-45q50 109 113 109q14 0 41 -5l54 -10q16 -3 41 -3q20 0 52 35h41zM568 434l-75 -355q-2 -11 6.5 -20.5t20.5 -10.5q9 -1 26 2l-14 -64q-34 -9 -67 -9q-27 0 -46 24.5t-17 51.5
q-107 -75 -192 -75q-68 0 -106 30.5t-38 85.5q0 18 4 38q29 136 197 158l152 20q36 5 47 57q10 44 8 51q-4 21 -39 34t-83 13q-93 0 -130 -97h-76q10 78 79 126q65 46 156 46q82 0 135 -27t53 -67q0 -6 -1 -12zM443 255q-65 -17 -190 -35q-38 -7 -67 -36q-32 -31 -32 -68
q0 -30 22 -48.5t58 -18.5q68 0 125.5 38t67.5 87z" />
    <glyph glyph-name="adieresis" unicode="&#xf123;" 
d="M558 708l-21 -103h-92l21 103h92zM384 708l-21 -103h-92l21 103h92zM568 434l-75 -355q-2 -11 6.5 -20.5t20.5 -10.5q9 -1 26 2l-14 -64q-34 -9 -67 -9q-27 0 -46 24.5t-17 51.5q-107 -75 -192 -75q-68 0 -106 30.5t-38 85.5q0 18 4 38q29 136 197 158l152 20q36 5 47 57
q10 44 8 51q-4 21 -39 34t-83 13q-93 0 -130 -97h-76q10 78 79 126q65 46 156 46q82 0 135 -27t53 -67q0 -6 -1 -12zM443 255q-65 -17 -190 -35q-38 -7 -67 -36q-32 -31 -32 -68q0 -30 22 -48.5t58 -18.5q68 0 125.5 38t67.5 87z" />
    <glyph glyph-name="eth" unicode="&#xf124;" horiz-adv-x="494" 
d="M565 258q-27 -127 -98 -200q-79 -81 -197 -81q-190 0 -190 191q0 42 11 92q30 143 119 216q77 64 182 64q-18 36 -43 68l-127 -47l-19 33l118 46q-42 42 -85 42l42 46q57 0 126 -56l125 49l18 -39l-110 -41q60 -60 96 -138q40 -86 40 -173q0 -37 -8 -72zM479 256
q6 29 6 60q0 140 -120 140q-146 0 -187 -194q-7 -33 -7 -63q0 -62 29.5 -100t86.5 -38q72 0 128 64q48 55 64 131z" />
  </font>
</defs>
</svg>
